<svg width="43" height="33" viewBox="0 0 43 33" fill="none" xmlns="http://www.w3.org/2000/svg">
    <path d="M39.3823 32.9797C38.8008 32.9797 38.3545 32.8005 38.0434 32.4421C37.7324 32.0769 37.5768 31.5934 37.5768 30.9916C37.5768 30.329 37.7628 29.8117 38.1347 29.4398C38.4931 29.0949 38.9394 28.9225 39.4736 28.9225C39.832 28.9225 40.1363 28.9833 40.3865 29.105V27.5024H41.0762V32.8985H40.5893L40.4777 32.6247C40.1126 32.8613 39.7474 32.9797 39.3823 32.9797ZM39.5142 32.4218C39.6967 32.4218 39.8489 32.4049 39.9706 32.3711C40.0991 32.3305 40.2377 32.2696 40.3865 32.1885V29.6122C40.1363 29.5108 39.8489 29.46 39.5243 29.46C39.1051 29.46 38.7872 29.5953 38.5709 29.8658C38.3612 30.1362 38.2564 30.498 38.2564 30.9511C38.2564 31.3973 38.3612 31.7557 38.5709 32.0262C38.7872 32.2899 39.1017 32.4218 39.5142 32.4218Z" fill="black"/>
    <path d="M36.4716 28.9529C36.6203 28.9529 36.7387 28.963 36.8266 28.9833C36.9212 28.9968 37.0125 29.0239 37.1004 29.0645L36.8672 29.6527C36.6913 29.5716 36.4986 29.531 36.289 29.531C36.005 29.531 35.7244 29.6257 35.4471 29.815V32.8985H34.7878V29.0036H35.2646L35.4066 29.3383C35.7447 29.0814 36.0997 28.9529 36.4716 28.9529Z" fill="black"/>
    <path d="M32.0597 29.5209C31.9177 29.5209 31.7453 29.5378 31.5424 29.5716C31.3463 29.5986 31.1705 29.6358 31.015 29.6832L30.8831 29.1963C31.3362 29.0408 31.7588 28.963 32.151 28.963C32.5905 28.963 32.9252 29.0306 33.1551 29.1659C33.358 29.3146 33.4966 29.4735 33.571 29.6426C33.6521 29.8116 33.6927 30.0585 33.6927 30.383V32.8985H33.1957L33.0537 32.5333C32.6683 32.8444 32.2727 32.9999 31.867 32.9999C31.5154 32.9999 31.2178 32.8985 30.9744 32.6956C30.7377 32.4928 30.6194 32.2358 30.6194 31.9248C30.6194 31.6205 30.7107 31.3703 30.8932 31.1742C31.0826 30.9713 31.3125 30.8361 31.583 30.7685C31.9278 30.6806 32.4113 30.6298 33.0334 30.6163V30.5859C33.0334 30.3086 33.0064 30.1058 32.9523 29.9773C32.8441 29.673 32.5466 29.5209 32.0597 29.5209ZM31.9583 32.4725C32.1814 32.4725 32.3775 32.4353 32.5466 32.3609C32.7156 32.2798 32.8779 32.1682 33.0334 32.0262V31.093C32.5668 31.0998 32.222 31.1269 31.9988 31.1742C31.7486 31.2283 31.5627 31.3094 31.441 31.4176C31.3193 31.519 31.2584 31.6644 31.2584 31.8538C31.2584 32.0499 31.326 32.202 31.4613 32.3102C31.6033 32.4184 31.7689 32.4725 31.9583 32.4725Z" fill="black"/>
    <path d="M28.8212 32.9898C28.2194 32.9898 27.7528 32.8174 27.4215 32.4725C27.0969 32.1276 26.9346 31.6442 26.9346 31.0221C26.9346 30.4405 27.1037 29.9401 27.4418 29.5209C27.7799 29.1422 28.2836 28.9529 28.9531 28.9529C29.2844 28.9529 29.6158 29.0239 29.9471 29.1659L29.7848 29.6527C29.5481 29.5513 29.281 29.5006 28.9835 29.5006C28.5237 29.5006 28.1788 29.6223 27.9489 29.8657C27.719 30.1024 27.6041 30.4473 27.6041 30.9003C27.6041 31.4819 27.7427 31.8842 28.0199 32.1074C28.2972 32.3305 28.6387 32.4421 29.0444 32.4421C29.3013 32.4421 29.5481 32.3981 29.7848 32.3102L29.937 32.7666C29.5448 32.9154 29.1729 32.9898 28.8212 32.9898Z" fill="black"/>
    <path d="M25.8294 28.9529C25.9781 28.9529 26.0965 28.963 26.1844 28.9833C26.279 28.9968 26.3703 29.0239 26.4582 29.0645L26.2249 29.6527C26.0491 29.5716 25.8564 29.531 25.6468 29.531C25.3628 29.531 25.0822 29.6257 24.8049 29.815V32.8985H24.1456V29.0036H24.6224L24.7644 29.3383C25.1025 29.0814 25.4575 28.9529 25.8294 28.9529Z" fill="black"/>
    <path d="M21.6108 28.9529C22.1247 28.9529 22.5203 29.1084 22.7975 29.4195C23.0748 29.7237 23.2134 30.1565 23.2134 30.7178V31.0728L23.1728 31.1539H20.5052C20.5052 31.4852 20.6303 31.7929 20.8805 32.0769C21.1172 32.3136 21.4857 32.4319 21.9861 32.4319C22.3174 32.4319 22.6319 32.3812 22.9294 32.2798L23.0511 32.7666C22.6386 32.9086 22.2228 32.9796 21.8035 32.9796C21.1747 32.9796 20.6946 32.8106 20.3632 32.4725C20.0319 32.1344 19.8662 31.6509 19.8662 31.0221C19.8662 30.427 20.0116 29.9368 20.3024 29.5513C20.6134 29.1524 21.0496 28.9529 21.6108 28.9529ZM22.544 30.6265C22.544 30.2884 22.4696 30.0111 22.3208 29.7947C22.1788 29.5784 21.9658 29.4702 21.6818 29.4702C21.3234 29.4702 21.0496 29.5784 20.8602 29.7947C20.6709 30.0111 20.5559 30.2884 20.5154 30.6265H22.544Z" fill="black"/>
    <path d="M18.3765 32.9797C17.9843 32.9797 17.7037 32.8749 17.5346 32.6653C17.3723 32.4489 17.2912 32.1243 17.2912 31.6916V29.5514H16.6319V29.0037H17.2912V28.0502L17.9505 27.9995V29.0037H19.2285V29.5514H17.9505V31.651C17.9505 31.9215 17.9911 32.1176 18.0722 32.2393C18.1601 32.361 18.3258 32.4219 18.5692 32.4219C18.7991 32.4219 19.0054 32.4016 19.1879 32.361L19.2995 32.8073C18.9952 32.9222 18.6875 32.9797 18.3765 32.9797Z" fill="black"/>
    <path d="M14.5088 32.4319C14.7455 32.4319 14.945 32.388 15.1073 32.3001C15.2763 32.2054 15.3608 32.0702 15.3608 31.8943C15.3608 31.7523 15.3 31.6408 15.1783 31.5596C15.0566 31.4785 14.7996 31.3568 14.4074 31.1945L14.022 31.0423C13.8529 30.9612 13.7143 30.8902 13.6061 30.8293C13.4979 30.7617 13.3999 30.6637 13.312 30.5352C13.2241 30.3999 13.1801 30.2309 13.1801 30.028C13.1801 29.6629 13.3289 29.3924 13.6264 29.2166C13.9307 29.0408 14.3026 28.9529 14.7421 28.9529C15.114 28.9529 15.4859 29.0374 15.8579 29.2065L15.6956 29.6933C15.3913 29.5648 15.0971 29.5006 14.8131 29.5006C14.5224 29.5006 14.2857 29.5446 14.1031 29.6325C13.9273 29.7136 13.8394 29.8319 13.8394 29.9875C13.8394 30.143 13.9003 30.2647 14.022 30.3526C14.1505 30.4405 14.3668 30.5419 14.6711 30.6569L15.0058 30.7888C15.3778 30.9443 15.6381 31.1066 15.7869 31.2756C15.9356 31.4447 16.01 31.6678 16.01 31.9451C16.01 32.2291 15.8781 32.4759 15.6144 32.6855C15.3507 32.8884 14.9991 32.9898 14.5596 32.9898C14.0592 32.9898 13.5655 32.8917 13.0787 32.6956L13.2612 32.1986C13.7008 32.3542 14.1166 32.4319 14.5088 32.4319Z" fill="black"/>
    <path d="M10.5534 29.5209C10.4114 29.5209 10.239 29.5378 10.0361 29.5716C9.84001 29.5986 9.6642 29.6358 9.50867 29.6832L9.37682 29.1963C9.82987 29.0408 10.2525 28.963 10.6447 28.963C11.0842 28.963 11.4189 29.0306 11.6488 29.1659C11.8517 29.3146 11.9903 29.4735 12.0647 29.6426C12.1459 29.8116 12.1864 30.0585 12.1864 30.383V32.8985H11.6894L11.5474 32.5333C11.162 32.8444 10.7664 32.9999 10.3607 32.9999C10.0091 32.9999 9.71153 32.8985 9.4681 32.6956C9.23143 32.4928 9.1131 32.2358 9.1131 31.9248C9.1131 31.6205 9.20438 31.3703 9.38696 31.1742C9.57629 30.9713 9.8062 30.8361 10.0767 30.7685C10.4215 30.6806 10.905 30.6298 11.5271 30.6163V30.5859C11.5271 30.3086 11.5001 30.1058 11.446 29.9773C11.3378 29.673 11.0403 29.5209 10.5534 29.5209ZM10.452 32.4725C10.6751 32.4725 10.8712 32.4353 11.0403 32.3609C11.2093 32.2798 11.3716 32.1682 11.5271 32.0262V31.093C11.0606 31.0998 10.7157 31.1269 10.4925 31.1742C10.2424 31.2283 10.0564 31.3094 9.93468 31.4176C9.81296 31.519 9.75211 31.6644 9.75211 31.8538C9.75211 32.0499 9.81973 32.202 9.95497 32.3102C10.097 32.4184 10.2626 32.4725 10.452 32.4725Z" fill="black"/>
    <path d="M7.51684 30.4236C7.51684 29.788 7.26326 29.4702 6.75611 29.4702C6.50592 29.4702 6.19487 29.5851 5.82296 29.815C5.84324 29.8894 5.85339 30.0382 5.85339 30.2613V32.8985H5.19409V30.4236C5.19409 29.788 4.93714 29.4702 4.42323 29.4702C4.17979 29.4702 3.87889 29.5682 3.5205 29.7643V32.8985H2.86121V29.0036H3.31764L3.45964 29.3282C3.68955 29.1727 3.90255 29.0645 4.09865 29.0036C4.25418 28.963 4.43337 28.9427 4.63623 28.9427C4.85937 28.9427 5.05547 28.9867 5.22452 29.0746C5.40033 29.1625 5.54234 29.2842 5.65053 29.4398C5.87367 29.2775 6.08668 29.1558 6.28954 29.0746C6.4924 28.9867 6.71554 28.9427 6.95897 28.9427C7.35793 28.9427 7.66222 29.0645 7.87184 29.3079C8.08823 29.5446 8.19642 29.8624 8.19642 30.2613V32.8985H7.51684V30.4236Z" fill="black"/>
    <rect width="26.46" height="26.46" rx="13.23" fill="#C6111D"/>
    <rect x="16.4934" width="26.46" height="26.46" rx="13.23" fill="#E8A427"/>
</svg>
