
<svg width="218" height="379" viewBox="0 0 218 379" fill="none" xmlns="http://www.w3.org/2000/svg">
    <path d="M51.9959 372.969C51.9959 376.392 49.225 379 45.965 379C42.5421 379 39.9342 376.229 39.9342 372.969C39.9342 369.546 42.7051 366.938 45.965 366.938C49.225 366.938 51.9959 369.709 51.9959 372.969Z" fill="#3A3A3A"/>
    <path d="M60.7977 308.422L89.4851 210.461" stroke="#3A3A3A" stroke-miterlimit="10"/>
    <path d="M96.0051 214.373L87.5292 211.928C86.2252 211.602 85.5733 210.299 85.8993 208.995C86.2252 207.691 87.5292 207.039 88.8332 207.365L97.309 209.81C98.613 210.136 99.265 211.439 98.939 212.743C98.613 214.047 97.309 214.862 96.0051 214.373Z" fill="#EFB93F"/>
    <path d="M64.2207 308.422L92.7451 210.461" stroke="#3A3A3A" stroke-width="0.7087" stroke-miterlimit="10"/>
    <path d="M40.5862 373.295L23.1455 368.242C15.1587 365.96 10.5948 357.647 13.0397 349.661L34.0663 277.942C36.3482 269.955 44.6611 265.391 52.6479 267.836L70.0886 272.889C78.0754 275.171 82.6393 283.484 80.1943 291.471L59.1678 363.189C56.8858 371.013 48.573 375.577 40.5862 373.295Z" fill="#EFB93F"/>
    <path opacity="0.16" d="M44.987 374.273C50.3659 375.903 56.5598 371.013 58.8417 363.352L79.8683 291.471C82.1503 283.81 79.5423 276.475 74.0005 274.845L72.5335 274.356C63.0797 306.14 55.5818 335.154 48.247 350.639C42.2161 363.352 34.3923 367.427 28.1984 369.22L44.987 374.273Z" fill="#8C5900"/>
    <path d="M31.7844 349.009L14.6697 343.956C14.0178 343.793 13.5288 342.978 13.6917 342.326V342.163C13.8547 341.511 14.6697 341.022 15.3217 341.185L32.4364 346.238C33.0883 346.401 33.5773 347.216 33.4144 347.868V348.031C33.2514 348.846 32.4364 349.172 31.7844 349.009Z" fill="#F7DBA4"/>
    <path d="M34.0664 341.022L16.9517 335.969C16.2997 335.806 15.8107 334.991 15.9737 334.339V334.176C16.1367 333.524 16.9517 333.035 17.6037 333.198L34.7183 338.251C35.3703 338.414 35.8593 339.229 35.6963 339.881V340.044C35.5333 340.859 34.7184 341.185 34.0664 341.022Z" fill="#F7DBA4"/>
    <path d="M36.1852 333.035L19.0706 327.982C18.4186 327.819 17.9296 327.004 18.0926 326.352V326.189C18.2556 325.537 19.0705 325.048 19.7225 325.211L36.8372 330.264C37.4892 330.427 37.9782 331.242 37.8152 331.894V332.057C37.6522 332.872 36.8372 333.361 36.1852 333.035Z" fill="#F7DBA4"/>
    <path d="M42.5421 115.923C33.4143 123.258 34.5553 135.157 40.7492 145.263C46.943 155.369 63.4057 160.585 72.5335 153.902C77.5864 150.316 82.9653 143.47 88.5072 141.025C94.0491 138.58 96.494 137.928 102.199 136.135C110.512 133.364 115.402 123.584 122.573 118.205C130.071 112.501 132.353 101.417 137.895 93.2669C142.296 86.747 147.186 86.91 150.12 79.4122C152.728 73.0553 158.27 67.3504 159.248 60.5046C161.041 48.9318 153.054 39.478 142.622 39.478C132.19 39.478 123.062 47.1389 116.706 56.4297C111.979 63.4385 108.393 71.5884 102.362 76.9673C87.0402 90.985 60.7978 80.8792 53.6259 101.091C50.529 109.893 48.736 111.034 42.5421 115.923Z" fill="#21465B"/>
    <path d="M137.08 235.4C145.393 278.105 153.706 317.224 164.79 358.625C165.605 361.885 166.909 367.59 168.05 367.753C169.68 367.916 170.984 367.59 172.613 367.264C173.917 366.938 174.732 365.308 174.569 363.515C168.05 300.273 166.094 249.418 153.706 187.968C153.217 185.849 133.82 177.047 133.82 177.047" fill="#FFD8B3"/>
    <path d="M53.7889 343.956C56.2339 342.326 58.8418 340.533 61.2867 338.903C62.2647 338.251 63.4057 337.599 64.5467 337.599C66.6656 337.599 68.1326 339.718 69.1106 341.511C69.4366 342.163 69.9256 342.815 69.7626 343.63C69.5996 344.608 68.6216 345.097 67.8066 345.423C64.0577 347.216 60.1458 349.009 56.3968 350.802" fill="#FFD8B3"/>
    <path d="M60.3088 374.925C57.8638 369.872 55.9078 365.797 53.4629 360.907C52.6479 359.44 47.432 347.053 46.617 345.26C46.291 344.608 46.128 343.956 46.291 343.467C46.454 342.815 47.269 342.326 47.921 342.163C50.6919 341.022 53.6259 340.37 56.5598 340.044C57.2118 340.044 58.0268 340.044 58.5158 340.533C59.0048 341.022 58.8417 341.674 58.8417 342.326C58.6787 344.771 58.6788 344.934 60.3088 347.053C60.6347 347.542 62.4277 349.497 62.9167 349.986C63.4056 350.475 63.5687 351.29 63.8946 351.942C65.3616 357.973 66.0136 364.33 65.8506 370.524C65.8506 371.991 65.6876 373.458 64.8726 374.599C64.0577 375.74 62.4277 376.555 61.1237 375.74" fill="#37997B"/>
    <path d="M65.6877 343.793C65.8507 344.934 66.6657 345.586 67.4806 345.097C79.7054 338.903 106.6 317.387 116.869 302.391C132.027 280.387 122.411 279.409 132.679 252.514C140.666 231.814 149.957 204.104 151.424 181.448C143.6 181.122 137.732 180.47 129.745 181.448C128.115 181.611 127.789 181.774 126.485 183.241C125.181 184.708 119.477 201.334 113.935 217.307C100.243 257.567 109.697 280.061 103.992 288.048C82.9653 316.572 77.7494 323.744 63.7317 337.925C63.2427 338.414 62.9167 338.74 64.7097 336.458L65.6877 343.793Z" fill="#FFD8B3"/>
    <path d="M196.737 378.185C191.195 378.348 186.631 378.348 181.089 378.511C179.459 378.511 165.931 378.022 163.975 378.022C163.323 378.022 162.671 378.022 162.182 377.533C161.693 377.044 161.53 376.229 161.693 375.414C161.856 372.48 162.508 369.546 163.486 366.612C163.649 365.96 163.975 365.308 164.627 365.145C165.279 364.982 165.768 365.308 166.42 365.634C168.539 366.938 168.702 366.938 171.309 366.449C171.961 366.286 174.406 365.471 175.058 365.308C175.71 364.982 176.525 365.145 177.177 365.308C183.371 366.612 189.239 368.568 194.781 371.502C196.085 372.154 197.389 372.806 198.041 374.11C198.856 375.251 198.693 377.207 197.552 377.859" fill="#37997B"/>
    <path d="M190.38 192.532C191.847 192.206 195.759 194.651 197.063 195.466C198.367 196.444 199.834 197.585 200.16 199.378C200.649 201.333 199.508 203.289 198.367 204.919C198.041 205.408 197.552 206.06 197.063 206.223C196.411 206.549 195.759 206.549 195.27 205.897C194.944 205.571 194.944 204.919 194.618 204.593C194.129 204.104 193.314 204.267 192.662 204.267C191.521 204.267 190.543 203.452 189.891 202.474C189.239 201.497 186.794 198.726 186.468 197.585" fill="#FFD8B3"/>
    <path d="M187.446 197.259C186.631 198.074 185.49 198.237 184.512 197.748C176.688 193.184 162.997 182.589 153.543 171.342C151.424 168.897 149.468 166.289 148.001 163.518C145.882 159.606 144.741 155.206 143.437 150.968C140.34 139.721 137.08 128.148 137.406 116.412C137.569 110.707 139.362 103.862 145.393 102.558C147.349 102.069 149.305 102.395 151.098 103.373C155.01 105.166 157.455 108.915 158.922 112.826C163.486 124.073 162.182 136.787 162.997 149.012C163.323 152.761 163.812 156.51 165.442 159.932C166.909 163.192 169.354 166.126 171.798 168.897C179.459 177.699 183.208 182.752 190.217 191.065C191.032 192.043 191.032 193.347 190.217 194.325L187.446 197.259Z" fill="#37997B"/>
    <path d="M121.595 180.633C118.824 180.633 116.543 178.84 115.891 176.395C111.816 160.584 111.327 142.655 109.534 126.844C109.208 123.421 109.86 115.271 111.327 112.011C113.772 106.144 114.913 103.536 122.084 100.113C129.419 96.6898 136.754 98.6457 144.904 98.8087C154.521 99.1347 158.107 112.826 161.693 119.02C167.071 128.311 165.605 133.69 161.204 142.166C158.433 147.545 154.032 146.241 153.543 174.928C153.543 176.721 151.913 178.188 149.957 178.188L121.595 180.633Z" fill="#4AAA83"/>
    <path d="M84.1062 199.867C82.9652 200.845 82.3133 206.061 82.3133 207.528C82.3133 209.158 82.3133 211.113 83.4542 212.417C84.7582 213.884 86.8772 214.21 88.8332 214.373C89.4851 214.373 90.1371 214.373 90.7891 214.21C91.4411 213.884 91.7671 213.232 91.6041 212.743C91.4411 212.254 91.1151 211.928 90.9521 211.439C90.7891 210.787 91.4411 210.298 91.7671 209.646C92.4191 208.669 92.4191 207.528 91.9301 206.387C91.6041 205.409 90.1371 201.008 89.4851 200.193" fill="#FFD8B3"/>
    <path d="M84.4322 201.823C83.4542 201.823 82.4763 201.008 82.3133 200.03C78.5644 184.708 77.9124 168.734 80.5203 153.087C81.0093 149.827 81.6613 146.567 82.9653 143.47C84.5952 139.232 87.2032 135.32 89.6481 131.408C96.331 121.302 103.177 111.034 112.631 103.536C117.195 99.7869 123.714 96.6899 128.767 100.439C130.397 101.743 131.538 103.536 132.027 105.492C133.168 109.893 131.864 114.131 129.908 118.043C124.203 129.289 113.283 136.787 104.481 145.589C101.71 148.36 99.1019 151.294 97.4719 154.88C95.842 158.303 95.353 162.052 94.864 165.801C93.071 177.699 92.5821 187.968 91.1151 199.867C90.9521 201.008 89.8111 201.986 88.6701 201.823H84.4322Z" fill="#5BB58E"/>
    <path d="M83.1282 276.964C84.2692 278.92 87.0401 279.246 88.8331 277.942C94.5379 273.378 103.666 272.074 110.023 275.823C117.683 280.224 124.855 286.744 133.983 287.07C140.666 287.233 147.023 283.973 153.706 283.973C162.834 284.136 170.82 290.656 179.296 292.775C182.882 293.59 186.305 290.656 185.49 287.233C178.155 248.766 164.3 210.461 151.424 173.298C138.221 174.439 132.353 175.254 117.846 175.254C101.873 191.065 102.525 212.091 98.2869 233.77C95.3529 248.766 86.8771 259.686 82.4762 274.193C82.3132 275.008 82.4762 276.149 83.1282 276.964Z" fill="#37997B"/>
    <path d="M154.195 180.144C154.195 180.144 112.631 183.241 114.587 179.329C116.217 176.069 114.098 171.831 115.728 172.157C122.736 173.624 153.706 172.483 153.706 172.483L154.195 180.144Z" fill="#EFB93F"/>
    <path d="M133.657 101.254C132.19 100.439 131.538 98.6459 131.701 96.69C132.19 91.9631 132.842 84.9542 133.005 81.8573C133.168 80.5533 133.331 79.2493 133.494 77.9454C133.494 77.6194 133.657 77.2934 133.82 77.1304C133.983 76.9674 134.146 76.9674 134.309 76.8044C136.265 76.4784 138.058 77.7824 140.014 78.4344C142.296 79.0863 144.741 78.7604 147.186 79.4123C147.512 79.4123 147.838 79.5753 147.838 79.9013C147.838 80.0643 147.838 80.2273 147.838 80.5533C147.838 84.3022 147.349 92.4521 147.349 97.179C147.349 98.3199 147.512 99.9499 146.86 100.602L145.393 102.069C143.437 104.188 139.525 104.84 137.406 103.373L133.657 101.254Z" fill="#FFD8B3"/>
    <g opacity="0.37">
        <path d="M133.657 77.1304C133.82 76.9674 133.983 76.9674 134.146 76.8044C136.102 76.4784 137.895 77.7824 139.851 78.4344C142.133 79.0863 144.578 78.7604 147.023 79.4123C147.349 79.4123 147.675 79.5753 147.675 79.9013C147.675 80.0643 147.675 80.2273 147.675 80.5533C147.675 82.6723 147.512 84.7912 147.512 86.9102C145.393 88.2141 142.948 89.0292 140.666 88.8662C137.406 88.8662 134.309 86.9102 132.679 83.6502C132.679 82.9983 132.842 82.3463 132.842 81.8573C133.005 80.5533 133.168 79.2493 133.331 77.9454C133.494 77.6194 133.494 77.2934 133.657 77.1304Z" fill="#E89C82"/>
    </g>
    <path d="M129.582 73.7075C126.974 73.5445 124.692 72.0775 124.203 69.9586C123.714 68.0026 125.833 65.5577 128.441 65.2317" fill="#FFD8B3"/>
    <path d="M129.256 73.8702C132.027 83.976 138.873 84.791 146.045 86.91C147.349 87.2359 149.468 87.399 150.772 87.073C154.032 86.421 155.499 82.998 156.151 80.2271C157.292 75.1742 157.781 70.2843 157.618 65.2314C157.618 61.8085 157.292 58.2225 155.662 55.1256C154.032 52.0287 150.935 49.4207 147.023 49.0947C142.133 48.6057 137.243 51.3767 133.983 54.7996C129.256 59.8525 126.811 66.6984 128.93 72.7292" fill="#FFD8B3"/>
    <path d="M157.618 64.9053C157.618 68.0022 157.781 67.5132 158.107 69.3062C158.107 69.4692 158.596 71.0992 159.574 71.7512C160.389 72.2401 160.552 73.5441 159.9 74.3591C159.574 74.8481 159.085 75.0111 158.596 75.1741C157.781 75.3371 157.129 75.1741 156.64 74.5221" fill="#FFD8B3"/>
    <path d="M124.366 64.9053C132.19 65.5572 148.164 61.6453 155.01 57.8964C156.803 56.9184 158.922 54.9625 160.226 53.4955C161.53 52.0285 153.543 51.5395 153.054 49.5836C152.076 46.3236 148.001 45.1827 144.578 45.3457C139.199 45.6716 133.82 47.7906 129.745 51.3765" fill="#21465B"/>
    <path d="M170.006 49.9097C170.006 53.4957 157.618 56.7556 141.97 57.0816C126.485 57.4076 113.772 54.6366 113.772 51.0507C113.772 47.4648 126.159 44.2049 141.807 43.8789C157.292 43.5529 169.843 46.3238 170.006 49.9097Z" fill="#EFB93F"/>
    <path d="M158.759 36.8701C158.759 39.641 162.508 52.0288 140.503 52.3548C120.617 52.6808 124.529 40.13 124.529 37.5221C124.529 34.7511 132.027 32.4692 141.481 32.3062C151.098 32.1432 158.759 34.2621 158.759 36.8701Z" fill="#EFB93F"/>
    <path d="M124.367 46.4867C135.939 49.0947 148.49 49.0947 159.9 45.9977C161.856 45.5088 161.041 42.4118 159.085 42.9008C148.164 45.8347 136.265 45.8347 125.181 43.3898C123.226 43.0638 122.248 46.1607 124.367 46.4867Z" fill="#21465B"/>
    <path d="M189.565 351.453C190.869 350.638 192.173 349.823 193.314 348.845C192.173 349.823 191.032 350.638 189.565 351.453Z" fill="url(#paint0_linear_4_597)"/>
    <path d="M196.9 345.749C198.041 344.608 199.019 343.467 199.997 342.326L200.16 342.489C199.182 343.63 198.041 344.771 196.9 345.749Z" fill="url(#paint1_linear_4_597)"/>
    <path d="M202.768 338.74C203.583 337.436 204.561 336.132 205.376 334.828L205.702 334.991C204.887 336.295 204.072 337.599 203.094 338.74H202.768Z" fill="url(#paint2_linear_4_597)"/>
    <path d="M207.658 330.753L209.614 326.678L210.103 327.004L208.147 331.079L207.658 330.753Z" fill="url(#paint3_linear_4_597)"/>
    <path d="M211.407 322.44L213.037 318.039L213.689 318.365L212.059 322.603L211.407 322.44Z" fill="url(#paint4_linear_4_597)"/>
    <path d="M214.178 313.638L215.319 309.237L216.134 309.4L214.993 313.964L214.178 313.638Z" fill="url(#paint5_linear_4_597)"/>
    <path d="M215.971 304.673C216.134 303.206 216.297 301.576 216.46 300.109L217.601 300.272C217.438 301.739 217.274 303.369 217.111 304.836L215.971 304.673Z" fill="url(#paint6_linear_4_597)"/>
    <path d="M216.623 295.545C216.623 294.079 216.622 292.449 216.46 290.982L217.6 290.819C217.763 292.449 217.763 293.916 217.763 295.545H216.623Z" fill="url(#paint7_linear_4_597)"/>
    <path d="M215.808 286.418L214.993 281.854L216.297 281.691L217.112 286.255L215.808 286.418Z" fill="url(#paint8_linear_4_597)"/>
    <path d="M213.852 277.453C213.363 275.986 212.874 274.519 212.385 273.052L213.689 272.563C214.178 274.03 214.667 275.497 215.156 276.964L213.852 277.453Z" fill="url(#paint9_linear_4_597)"/>
    <path d="M210.755 268.977C210.103 267.51 209.451 266.206 208.799 264.902L210.103 264.25C210.918 265.554 211.57 267.021 212.222 268.488L210.755 268.977Z" fill="url(#paint10_linear_4_597)"/>
    <path d="M206.354 260.99C205.539 259.686 204.561 258.545 203.746 257.241L205.05 256.263C206.028 257.567 206.843 258.871 207.658 260.175L206.354 260.99Z" fill="url(#paint11_linear_4_597)"/>
    <path d="M200.812 253.655C199.834 252.515 198.693 251.537 197.552 250.396L198.693 249.092C199.834 250.233 200.975 251.374 201.953 252.514L200.812 253.655Z" fill="url(#paint12_linear_4_597)"/>
    <path d="M194.129 247.461C192.988 246.483 191.684 245.668 190.543 244.69L191.521 243.224C192.825 244.038 194.129 245.016 195.27 245.994L194.129 247.461Z" fill="url(#paint13_linear_4_597)"/>
    <path d="M186.631 242.409C185.327 241.594 184.023 240.942 182.556 240.29L183.371 238.497C184.838 239.149 186.142 239.964 187.446 240.779L186.631 242.409Z" fill="url(#paint14_linear_4_597)"/>
    <path d="M178.481 238.334L174.243 236.704L174.895 234.748L179.296 236.541L178.481 238.334Z" fill="url(#paint15_linear_4_597)"/>
    <path d="M169.842 235.237L165.442 233.933L166.094 231.977L170.494 233.281L169.842 235.237Z" fill="url(#paint16_linear_4_597)"/>
    <path d="M161.041 232.792L156.477 231.977L156.966 229.858L161.53 230.836L161.041 232.792Z" fill="url(#paint17_linear_4_597)"/>
    <path d="M152.076 231.162L147.512 230.51L147.838 228.391L152.402 229.043L152.076 231.162Z" fill="url(#paint18_linear_4_597)"/>
    <path d="M142.948 229.858L138.384 229.369L138.547 227.25L143.111 227.739L142.948 229.858Z" fill="url(#paint19_linear_4_597)"/>
    <path d="M133.82 228.88L129.093 228.391L129.419 226.272L133.983 226.761L133.82 228.88Z" fill="url(#paint20_linear_4_597)"/>
    <path d="M124.529 227.902L119.965 227.413L120.128 225.294L124.855 225.783L124.529 227.902Z" fill="url(#paint21_linear_4_597)"/>
    <path d="M115.402 226.924L110.675 226.435L111.001 224.153L115.565 224.805L115.402 226.924Z" fill="url(#paint22_linear_4_597)"/>
    <path d="M106.111 225.62L101.547 224.805L102.036 222.523L106.6 223.501L106.111 225.62Z" fill="url(#paint23_linear_4_597)"/>
    <path d="M96.983 223.827L92.5821 222.849L93.071 220.567L97.472 221.708L96.983 223.827Z" fill="url(#paint24_linear_4_597)"/>
    <path d="M88.0182 221.545L83.6172 220.404L84.2692 218.122L88.6702 219.426L88.0182 221.545Z" fill="url(#paint25_linear_4_597)"/>
    <path d="M79.0534 218.937L74.6524 217.47L75.4674 215.351L79.8683 216.818L79.0534 218.937Z" fill="url(#paint26_linear_4_597)"/>
    <path d="M70.4145 215.84L66.0136 214.047L66.8286 212.091L71.2295 213.721L70.4145 215.84Z" fill="url(#paint27_linear_4_597)"/>
    <path d="M61.7757 212.254L57.5378 210.298L58.5158 208.342L62.7537 210.135L61.7757 212.254Z" fill="url(#paint28_linear_4_597)"/>
    <path d="M53.4629 208.179L49.388 205.897L50.366 203.942L54.4409 206.223L53.4629 208.179Z" fill="url(#paint29_linear_4_597)"/>
    <path d="M45.3131 203.453L41.4012 200.845L42.7051 199.052L46.4541 201.66L45.3131 203.453Z" fill="url(#paint30_linear_4_597)"/>
    <path d="M37.6522 198.073L34.0663 194.976L35.5333 193.51L38.9562 196.443L37.6522 198.073Z" fill="url(#paint31_linear_4_597)"/>
    <path d="M30.6434 191.88L27.3834 188.457L29.0134 186.99L32.1103 190.413L30.6434 191.88Z" fill="url(#paint32_linear_4_597)"/>
    <path d="M24.4495 185.034L21.5156 181.285L23.1455 180.144L25.9165 183.567L24.4495 185.034Z" fill="url(#paint33_linear_4_597)"/>
    <path d="M18.7446 177.536L16.2997 173.624L17.9296 172.483L20.5375 176.395L18.7446 177.536Z" fill="url(#paint34_linear_4_597)"/>
    <path d="M13.8548 169.549L11.7358 165.311L13.5288 164.496L15.6477 168.571L13.8548 169.549Z" fill="url(#paint35_linear_4_597)"/>
    <path d="M9.94276 161.073L8.14984 156.836L9.94276 156.184L11.7357 160.422L9.94276 161.073Z" fill="url(#paint36_linear_4_597)"/>
    <path d="M6.51991 152.434L5.21591 148.033L7.00888 147.381L8.31284 151.782L6.51991 152.434Z" fill="url(#paint37_linear_4_597)"/>
    <path d="M3.91192 143.47L2.93393 138.906L4.5639 138.58L5.70487 142.981L3.91192 143.47Z" fill="url(#paint38_linear_4_597)"/>
    <path d="M1.95597 134.342L1.14099 129.778L2.77096 129.615L3.58594 134.016L1.95597 134.342Z" fill="url(#paint39_linear_4_597)"/>
    <path d="M0.488995 125.214L0 120.65L1.62997 120.487L2.11896 125.051L0.488995 125.214Z" fill="url(#paint40_linear_4_597)"/>
    <path d="M0 115.923V111.196L1.46698 111.359V115.923H0Z" fill="url(#paint41_linear_4_597)"/>
    <path d="M0.326019 106.633L0.978021 102.069L2.282 102.232L1.63 106.796L0.326019 106.633Z" fill="url(#paint42_linear_4_597)"/>
    <path d="M1.79294 97.5046L2.93391 92.9407L4.07488 93.2667L3.09692 97.6676L1.79294 97.5046Z" fill="url(#paint43_linear_4_597)"/>
    <path d="M4.40094 88.5401L6.03091 84.1392L6.84589 84.4651L5.37893 88.8661L4.40094 88.5401Z" fill="url(#paint44_linear_4_597)"/>
    <path d="M7.82382 79.9008L9.94276 75.6628L10.5948 76.1518L8.63881 80.2268L7.82382 79.9008Z" fill="url(#paint45_linear_4_597)"/>
    <path d="M12.3877 71.7513L14.8326 67.8394L15.3217 68.1653L12.8767 72.0773L12.3877 71.7513Z" fill="url(#paint46_linear_4_597)"/>
    <path d="M17.6036 64.0906L20.5375 60.5046L20.7005 60.6676L17.9296 64.4166L17.6036 64.0906Z" fill="url(#paint47_linear_4_597)"/>
    <path d="M23.6345 57.0815L26.8945 53.8215L23.7975 57.2444L23.6345 57.0815Z" fill="url(#paint48_linear_4_597)"/>
    <g opacity="0.22">
        <path d="M77.4234 10.4646L66.6656 16.0065C66.3397 15.6805 66.0137 15.3545 65.6877 15.1915C65.1987 14.8655 64.5467 14.3765 64.0577 14.0505C64.2207 13.3985 64.0577 12.5835 63.4057 11.6056C62.5907 10.3016 61.2867 10.4646 59.8198 11.4426C58.6788 10.7906 57.3748 10.1386 56.2339 9.48661C56.5599 8.34564 56.5598 7.36766 55.9079 6.87867C55.2559 6.38968 53.9519 6.71567 52.6479 7.69365C42.7051 2.80376 33.7403 0.0328053 33.7403 0.0328053C33.4143 -0.130191 33.0884 0.358804 33.4143 0.5218L55.4189 22.2003L56.3968 23.6673L40.9121 35.7291C35.8593 35.0771 27.0575 34.0991 23.4715 33.7731C22.1676 33.6101 22.0046 34.5881 22.8196 35.0771C25.7535 37.359 35.5333 43.0639 35.5333 43.0639L40.0972 55.2887C40.2602 55.7777 41.0752 55.7776 41.2382 55.1257L43.8461 41.271L62.2647 31.4912L62.7537 32.1431L79.5424 57.4076C80.0314 58.2226 81.1723 57.7336 81.0093 56.7556C80.1944 52.3547 79.8684 47.1388 79.0534 41.9229C80.3574 40.945 81.0094 39.967 80.6834 39.152C80.5204 38.5 79.5424 38.174 78.4014 38.011C78.0754 36.7071 77.9124 35.4031 77.5864 33.9361C79.0534 32.6321 79.7054 31.3282 78.4014 29.5352C77.7494 28.5572 76.9344 28.5572 75.9564 28.8832C75.6304 28.0682 75.4674 27.4162 75.1414 26.6013C74.8155 26.1123 74.4895 25.4603 74.1635 24.8083L81.4984 16.1695C83.1283 13.0725 81.4984 10.1386 77.4234 10.4646Z" fill="#368D96"/>
    </g>
    <defs>
        <linearGradient id="paint0_linear_4_597" x1="-0.501685" y1="350.079" x2="218.356" y2="350.079" gradientUnits="userSpaceOnUse">
            <stop stop-color="#4BAB83" stop-opacity="0.2"/>
            <stop offset="1" stop-color="#4AB2C5"/>
        </linearGradient>
        <linearGradient id="paint1_linear_4_597" x1="-0.502705" y1="344.058" x2="218.356" y2="344.058" gradientUnits="userSpaceOnUse">
            <stop stop-color="#4BAB83" stop-opacity="0.2"/>
            <stop offset="1" stop-color="#4AB2C5"/>
        </linearGradient>
        <linearGradient id="paint2_linear_4_597" x1="-0.501261" y1="336.84" x2="218.356" y2="336.84" gradientUnits="userSpaceOnUse">
            <stop stop-color="#4BAB83" stop-opacity="0.2"/>
            <stop offset="1" stop-color="#4AB2C5"/>
        </linearGradient>
        <linearGradient id="paint3_linear_4_597" x1="-0.502636" y1="328.868" x2="218.356" y2="328.868" gradientUnits="userSpaceOnUse">
            <stop stop-color="#4BAB83" stop-opacity="0.2"/>
            <stop offset="1" stop-color="#4AB2C5"/>
        </linearGradient>
        <linearGradient id="paint4_linear_4_597" x1="-0.501728" y1="320.387" x2="218.356" y2="320.387" gradientUnits="userSpaceOnUse">
            <stop stop-color="#4BAB83" stop-opacity="0.2"/>
            <stop offset="1" stop-color="#4AB2C5"/>
        </linearGradient>
        <linearGradient id="paint5_linear_4_597" x1="-0.499357" y1="311.545" x2="218.356" y2="311.545" gradientUnits="userSpaceOnUse">
            <stop stop-color="#4BAB83" stop-opacity="0.2"/>
            <stop offset="1" stop-color="#4AB2C5"/>
        </linearGradient>
        <linearGradient id="paint6_linear_4_597" x1="-0.502697" y1="302.456" x2="218.356" y2="302.456" gradientUnits="userSpaceOnUse">
            <stop stop-color="#4BAB83" stop-opacity="0.2"/>
            <stop offset="1" stop-color="#4AB2C5"/>
        </linearGradient>
        <linearGradient id="paint7_linear_4_597" x1="-0.499388" y1="293.198" x2="218.356" y2="293.198" gradientUnits="userSpaceOnUse">
            <stop stop-color="#4BAB83" stop-opacity="0.2"/>
            <stop offset="1" stop-color="#4AB2C5"/>
        </linearGradient>
        <linearGradient id="paint8_linear_4_597" x1="-0.500607" y1="284.025" x2="218.356" y2="284.025" gradientUnits="userSpaceOnUse">
            <stop stop-color="#4BAB83" stop-opacity="0.2"/>
            <stop offset="1" stop-color="#4AB2C5"/>
        </linearGradient>
        <linearGradient id="paint9_linear_4_597" x1="-0.504228" y1="275.062" x2="218.356" y2="275.062" gradientUnits="userSpaceOnUse">
            <stop stop-color="#4BAB83" stop-opacity="0.2"/>
            <stop offset="1" stop-color="#4AB2C5"/>
        </linearGradient>
        <linearGradient id="paint10_linear_4_597" x1="-0.503319" y1="266.5" x2="218.356" y2="266.5" gradientUnits="userSpaceOnUse">
            <stop stop-color="#4BAB83" stop-opacity="0.2"/>
            <stop offset="1" stop-color="#4AB2C5"/>
        </linearGradient>
        <linearGradient id="paint11_linear_4_597" x1="-0.502158" y1="258.563" x2="218.356" y2="258.563" gradientUnits="userSpaceOnUse">
            <stop stop-color="#4BAB83" stop-opacity="0.2"/>
            <stop offset="1" stop-color="#4AB2C5"/>
        </linearGradient>
        <linearGradient id="paint12_linear_4_597" x1="-0.503554" y1="251.475" x2="218.356" y2="251.475" gradientUnits="userSpaceOnUse">
            <stop stop-color="#4BAB83" stop-opacity="0.2"/>
            <stop offset="1" stop-color="#4AB2C5"/>
        </linearGradient>
        <linearGradient id="paint13_linear_4_597" x1="-0.502232" y1="245.407" x2="218.356" y2="245.407" gradientUnits="userSpaceOnUse">
            <stop stop-color="#4BAB83" stop-opacity="0.2"/>
            <stop offset="1" stop-color="#4AB2C5"/>
        </linearGradient>
        <linearGradient id="paint14_linear_4_597" x1="-0.502667" y1="240.437" x2="218.356" y2="240.437" gradientUnits="userSpaceOnUse">
            <stop stop-color="#4BAB83" stop-opacity="0.2"/>
            <stop offset="1" stop-color="#4AB2C5"/>
        </linearGradient>
        <linearGradient id="paint15_linear_4_597" x1="-0.502979" y1="236.55" x2="218.356" y2="236.55" gradientUnits="userSpaceOnUse">
            <stop stop-color="#4BAB83" stop-opacity="0.2"/>
            <stop offset="1" stop-color="#4AB2C5"/>
        </linearGradient>
        <linearGradient id="paint16_linear_4_597" x1="-0.501388" y1="233.595" x2="218.356" y2="233.595" gradientUnits="userSpaceOnUse">
            <stop stop-color="#4BAB83" stop-opacity="0.2"/>
            <stop offset="1" stop-color="#4AB2C5"/>
        </linearGradient>
        <linearGradient id="paint17_linear_4_597" x1="-0.501452" y1="231.4" x2="218.356" y2="231.4" gradientUnits="userSpaceOnUse">
            <stop stop-color="#4BAB83" stop-opacity="0.2"/>
            <stop offset="1" stop-color="#4AB2C5"/>
        </linearGradient>
        <linearGradient id="paint18_linear_4_597" x1="-0.502683" y1="229.776" x2="218.356" y2="229.776" gradientUnits="userSpaceOnUse">
            <stop stop-color="#4BAB83" stop-opacity="0.2"/>
            <stop offset="1" stop-color="#4AB2C5"/>
        </linearGradient>
        <linearGradient id="paint19_linear_4_597" x1="-0.502344" y1="228.549" x2="218.356" y2="228.549" gradientUnits="userSpaceOnUse">
            <stop stop-color="#4BAB83" stop-opacity="0.2"/>
            <stop offset="1" stop-color="#4AB2C5"/>
        </linearGradient>
        <linearGradient id="paint20_linear_4_597" x1="-0.502647" y1="227.554" x2="218.356" y2="227.554" gradientUnits="userSpaceOnUse">
            <stop stop-color="#4BAB83" stop-opacity="0.2"/>
            <stop offset="1" stop-color="#4AB2C5"/>
        </linearGradient>
        <linearGradient id="paint21_linear_4_597" x1="-0.502712" y1="226.63" x2="218.356" y2="226.63" gradientUnits="userSpaceOnUse">
            <stop stop-color="#4BAB83" stop-opacity="0.2"/>
            <stop offset="1" stop-color="#4AB2C5"/>
        </linearGradient>
        <linearGradient id="paint22_linear_4_597" x1="-0.502638" y1="225.585" x2="218.356" y2="225.585" gradientUnits="userSpaceOnUse">
            <stop stop-color="#4BAB83" stop-opacity="0.2"/>
            <stop offset="1" stop-color="#4AB2C5"/>
        </linearGradient>
        <linearGradient id="paint23_linear_4_597" x1="-0.502909" y1="224.123" x2="218.357" y2="224.123" gradientUnits="userSpaceOnUse">
            <stop stop-color="#4BAB83" stop-opacity="0.2"/>
            <stop offset="1" stop-color="#4AB2C5"/>
        </linearGradient>
        <linearGradient id="paint24_linear_4_597" x1="-0.502704" y1="222.211" x2="218.356" y2="222.211" gradientUnits="userSpaceOnUse">
            <stop stop-color="#4BAB83" stop-opacity="0.2"/>
            <stop offset="1" stop-color="#4AB2C5"/>
        </linearGradient>
        <linearGradient id="paint25_linear_4_597" x1="-0.502867" y1="219.876" x2="218.357" y2="219.876" gradientUnits="userSpaceOnUse">
            <stop stop-color="#4BAB83" stop-opacity="0.2"/>
            <stop offset="1" stop-color="#4AB2C5"/>
        </linearGradient>
        <linearGradient id="paint26_linear_4_597" x1="-0.502991" y1="217.127" x2="218.357" y2="217.127" gradientUnits="userSpaceOnUse">
            <stop stop-color="#4BAB83" stop-opacity="0.2"/>
            <stop offset="1" stop-color="#4AB2C5"/>
        </linearGradient>
        <linearGradient id="paint27_linear_4_597" x1="-0.502295" y1="213.932" x2="218.355" y2="213.932" gradientUnits="userSpaceOnUse">
            <stop stop-color="#4BAB83" stop-opacity="0.2"/>
            <stop offset="1" stop-color="#4AB2C5"/>
        </linearGradient>
        <linearGradient id="paint28_linear_4_597" x1="-0.502918" y1="210.263" x2="218.357" y2="210.263" gradientUnits="userSpaceOnUse">
            <stop stop-color="#4BAB83" stop-opacity="0.2"/>
            <stop offset="1" stop-color="#4AB2C5"/>
        </linearGradient>
        <linearGradient id="paint29_linear_4_597" x1="-0.502789" y1="206.067" x2="218.357" y2="206.067" gradientUnits="userSpaceOnUse">
            <stop stop-color="#4BAB83" stop-opacity="0.2"/>
            <stop offset="1" stop-color="#4AB2C5"/>
        </linearGradient>
        <linearGradient id="paint30_linear_4_597" x1="-0.502724" y1="201.264" x2="218.357" y2="201.264" gradientUnits="userSpaceOnUse">
            <stop stop-color="#4BAB83" stop-opacity="0.2"/>
            <stop offset="1" stop-color="#4AB2C5"/>
        </linearGradient>
        <linearGradient id="paint31_linear_4_597" x1="-0.502631" y1="195.754" x2="218.356" y2="195.754" gradientUnits="userSpaceOnUse">
            <stop stop-color="#4BAB83" stop-opacity="0.2"/>
            <stop offset="1" stop-color="#4AB2C5"/>
        </linearGradient>
        <linearGradient id="paint32_linear_4_597" x1="-0.502634" y1="189.459" x2="218.356" y2="189.459" gradientUnits="userSpaceOnUse">
            <stop stop-color="#4BAB83" stop-opacity="0.2"/>
            <stop offset="1" stop-color="#4AB2C5"/>
        </linearGradient>
        <linearGradient id="paint33_linear_4_597" x1="-0.502772" y1="182.518" x2="218.357" y2="182.518" gradientUnits="userSpaceOnUse">
            <stop stop-color="#4BAB83" stop-opacity="0.2"/>
            <stop offset="1" stop-color="#4AB2C5"/>
        </linearGradient>
        <linearGradient id="paint34_linear_4_597" x1="-0.502535" y1="175.008" x2="218.354" y2="175.008" gradientUnits="userSpaceOnUse">
            <stop stop-color="#4BAB83" stop-opacity="0.2"/>
            <stop offset="1" stop-color="#4AB2C5"/>
        </linearGradient>
        <linearGradient id="paint35_linear_4_597" x1="-0.502629" y1="167.009" x2="218.356" y2="167.009" gradientUnits="userSpaceOnUse">
            <stop stop-color="#4BAB83" stop-opacity="0.2"/>
            <stop offset="1" stop-color="#4AB2C5"/>
        </linearGradient>
        <linearGradient id="paint36_linear_4_597" x1="-0.502599" y1="158.617" x2="218.355" y2="158.617" gradientUnits="userSpaceOnUse">
            <stop stop-color="#4BAB83" stop-opacity="0.2"/>
            <stop offset="1" stop-color="#4AB2C5"/>
        </linearGradient>
        <linearGradient id="paint37_linear_4_597" x1="-0.502643" y1="149.931" x2="218.356" y2="149.931" gradientUnits="userSpaceOnUse">
            <stop stop-color="#4BAB83" stop-opacity="0.2"/>
            <stop offset="1" stop-color="#4AB2C5"/>
        </linearGradient>
        <linearGradient id="paint38_linear_4_597" x1="-0.502685" y1="141.033" x2="218.356" y2="141.033" gradientUnits="userSpaceOnUse">
            <stop stop-color="#4BAB83" stop-opacity="0.2"/>
            <stop offset="1" stop-color="#4AB2C5"/>
        </linearGradient>
        <linearGradient id="paint39_linear_4_597" x1="-0.502667" y1="131.991" x2="218.356" y2="131.991" gradientUnits="userSpaceOnUse">
            <stop stop-color="#4BAB83" stop-opacity="0.2"/>
            <stop offset="1" stop-color="#4AB2C5"/>
        </linearGradient>
        <linearGradient id="paint40_linear_4_597" x1="-0.502683" y1="122.853" x2="218.357" y2="122.853" gradientUnits="userSpaceOnUse">
            <stop stop-color="#4BAB83" stop-opacity="0.2"/>
            <stop offset="1" stop-color="#4AB2C5"/>
        </linearGradient>
        <linearGradient id="paint41_linear_4_597" x1="-0.502687" y1="113.595" x2="218.359" y2="113.595" gradientUnits="userSpaceOnUse">
            <stop stop-color="#4BAB83" stop-opacity="0.2"/>
            <stop offset="1" stop-color="#4AB2C5"/>
        </linearGradient>
        <linearGradient id="paint42_linear_4_597" x1="-0.502664" y1="104.375" x2="218.359" y2="104.375" gradientUnits="userSpaceOnUse">
            <stop stop-color="#4BAB83" stop-opacity="0.2"/>
            <stop offset="1" stop-color="#4AB2C5"/>
        </linearGradient>
        <linearGradient id="paint43_linear_4_597" x1="-0.502696" y1="95.2932" x2="218.355" y2="95.2932" gradientUnits="userSpaceOnUse">
            <stop stop-color="#4BAB83" stop-opacity="0.2"/>
            <stop offset="1" stop-color="#4AB2C5"/>
        </linearGradient>
        <linearGradient id="paint44_linear_4_597" x1="-0.50265" y1="86.462" x2="218.356" y2="86.462" gradientUnits="userSpaceOnUse">
            <stop stop-color="#4BAB83" stop-opacity="0.2"/>
            <stop offset="1" stop-color="#4AB2C5"/>
        </linearGradient>
        <linearGradient id="paint45_linear_4_597" x1="-0.502758" y1="77.98" x2="218.358" y2="77.98" gradientUnits="userSpaceOnUse">
            <stop stop-color="#4BAB83" stop-opacity="0.2"/>
            <stop offset="1" stop-color="#4AB2C5"/>
        </linearGradient>
        <linearGradient id="paint46_linear_4_597" x1="-0.502861" y1="69.9451" x2="218.358" y2="69.9451" gradientUnits="userSpaceOnUse">
            <stop stop-color="#4BAB83" stop-opacity="0.2"/>
            <stop offset="1" stop-color="#4AB2C5"/>
        </linearGradient>
        <linearGradient id="paint47_linear_4_597" x1="-0.502652" y1="62.4337" x2="218.356" y2="62.4337" gradientUnits="userSpaceOnUse">
            <stop stop-color="#4BAB83" stop-opacity="0.2"/>
            <stop offset="1" stop-color="#4AB2C5"/>
        </linearGradient>
        <linearGradient id="paint48_linear_4_597" x1="-0.502673" y1="55.5085" x2="218.356" y2="55.5085" gradientUnits="userSpaceOnUse">
            <stop stop-color="#4BAB83" stop-opacity="0.2"/>
            <stop offset="1" stop-color="#4AB2C5"/>
        </linearGradient>
    </defs>
</svg>
