<svg width="265" height="356" viewBox="0 0 265 356" fill="none" xmlns="http://www.w3.org/2000/svg">
    <path d="M0 40.2472C0 44.9822 0 345.288 0 345.288L72.4814 306.134L140.046 345.288L205.789 306.134L264.976 345.288V38.6082L205.06 0L140.228 43.3431L72.4814 0.546348L0 40.2472Z" fill="#F0EFED"/>
    <g opacity="0.69">
        <mask id="mask0_4_505" style="mask-type:luminance" maskUnits="userSpaceOnUse" x="0" y="0" width="265" height="346">
            <path d="M0 40.2472C0 44.9822 0 345.288 0 345.288L72.4814 306.134L140.046 345.288L205.789 306.134L264.976 345.288V38.6082L205.06 0L140.228 43.3431L72.4814 0.546348L0 40.2472Z" fill="white"/>
        </mask>
        <g mask="url(#mask0_4_505)">
            <path d="M234.199 366.049H33.8732C14.387 366.049 -1.45695 350.205 -1.45695 330.719V33.6907C-1.45695 14.2045 14.387 -1.6394 33.8732 -1.6394H234.381C253.867 -1.6394 269.711 14.2045 269.711 33.6907V330.719C269.529 350.205 253.685 366.049 234.199 366.049Z" fill="#F0EFED"/>
            <path d="M188.488 53.9055L177.197 79.5836" stroke="white" stroke-width="0.9921" stroke-miterlimit="10"/>
            <path d="M52.9951 295.935L94.8814 300.67" stroke="white" stroke-width="0.9921" stroke-miterlimit="10"/>
            <path d="M24.9496 -14.0232L95.9741 99.6159" stroke="white" stroke-width="0.9921" stroke-miterlimit="10"/>
            <path d="M221.815 46.0745L206.517 82.3151" stroke="white" stroke-width="0.9921" stroke-miterlimit="10"/>
            <path d="M120.924 86.5042L173.008 134.582C175.558 136.95 177.197 140.046 177.561 143.324C177.743 144.052 177.743 144.599 177.743 145.327V365.685L199.597 388.267" stroke="white" stroke-width="1.4173" stroke-miterlimit="10"/>
            <path d="M174.283 -21.1255L122.016 87.4145" stroke="white" stroke-width="1.4173" stroke-miterlimit="10"/>
            <path d="M188.488 54.0876L147.512 35.6941" stroke="white" stroke-width="0.9921" stroke-miterlimit="10"/>
            <path d="M177.197 314.511L273.899 315.057" stroke="white" stroke-width="0.9921" stroke-miterlimit="10"/>
            <path d="M-6.37399 83.408L42.2505 128.208L122.563 87.0502" stroke="white" stroke-width="1.4173" stroke-miterlimit="10"/>
            <path d="M42.2505 128.208L50.4456 163.902C57.7302 195.772 59.7334 228.735 56.0911 261.333L41.8862 389.542" stroke="white" stroke-width="1.4173" stroke-miterlimit="10"/>
            <path d="M55.909 190.127L105.262 176.104C105.262 172.826 105.808 157.346 105.808 157.346L141.503 145.691" stroke="white" stroke-width="1.4173" stroke-miterlimit="10"/>
            <path d="M124.748 151.701L133.672 245.307" stroke="white" stroke-width="0.9921" stroke-miterlimit="10"/>
            <path d="M155.707 118.556L141.503 147.148" stroke="white" stroke-width="0.9921" stroke-miterlimit="10"/>
            <path d="M79.948 181.932L63.7399 116.917" stroke="white" stroke-width="0.9921" stroke-miterlimit="10"/>
            <path d="M151.701 244.215L150.062 291.746" stroke="white" stroke-width="0.9921" stroke-miterlimit="10"/>
            <path d="M70.1139 146.055L97.9773 136.95" stroke="white" stroke-width="0.9921" stroke-miterlimit="10"/>
            <path d="M93.2424 118.92L97.9773 136.949" stroke="white" stroke-width="0.9921" stroke-miterlimit="10"/>
            <path d="M178.836 196.501H231.831V110.907L247.675 56.091L156.254 15.8438" stroke="white" stroke-width="1.4173" stroke-miterlimit="10"/>
            <path d="M-7.64881 237.294L21.8537 246.218L12.0195 296.481L52.2667 303.219" stroke="white" stroke-width="1.4173" stroke-miterlimit="10"/>
            <path d="M18.3935 265.34L54.6342 271.896" stroke="white" stroke-width="0.9921" stroke-miterlimit="10"/>
            <path d="M48.8065 157.893L16.5723 168.455L-9.83421 154.432" stroke="white" stroke-width="1.4173" stroke-miterlimit="10"/>
            <path d="M223.818 315.057L224.364 388.813" stroke="white" stroke-width="0.9921" stroke-miterlimit="10"/>
            <path d="M177.197 339.096L112.729 336.365" stroke="white" stroke-width="1.4173" stroke-miterlimit="10"/>
            <path d="M106.901 389.36L116.735 270.803L56.2732 264.065" stroke="white" stroke-width="1.4173" stroke-miterlimit="10"/>
            <path d="M72.4814 369.327L75.5773 340.371L93.2424 342.192L95.7919 319.064" stroke="white" stroke-width="0.9921" stroke-miterlimit="10"/>
            <path d="M178.29 231.649C179.2 231.649 238.751 230.01 238.751 230.01V245.671L285.373 246.218" stroke="white" stroke-width="0.9921" stroke-miterlimit="10"/>
            <path d="M231.831 110.907L195.044 111.454" stroke="white" stroke-width="0.9921" stroke-miterlimit="10"/>
            <path d="M96.8847 300.124C97.2489 299.213 104.169 243.122 104.169 243.122L176.468 244.761" stroke="white" stroke-width="1.4173" stroke-miterlimit="10"/>
        </g>
    </g>
    <path opacity="0.15" d="M140.228 42.9787L72.6634 0.728271V306.133L138.224 344.195L140.228 42.9787Z" fill="#7C7C7C"/>
    <path opacity="0.15" d="M264.794 42.0681L205.06 0.728271V306.133L264.794 344.195V42.0681Z" fill="#7C7C7C"/>
    <path d="M40.2472 160.625C35.3301 160.807 31.5057 165.906 31.6879 171.916C31.87 177.926 41.7041 193.041 41.7041 193.041C41.7041 193.041 50.0814 176.833 49.7171 170.823C49.535 164.996 45.3464 160.443 40.2472 160.625ZM40.9757 176.287C38.244 176.469 36.0586 174.101 35.8765 171.005C35.6943 167.909 37.8798 165.36 40.4294 165.36C43.1611 165.178 45.3464 167.545 45.5285 170.641C45.7106 173.555 43.7074 176.287 40.9757 176.287Z" fill="#EFB93F"/>
    <path d="M41.704 193.041C41.704 193.041 46.0748 244.761 71.2065 243.122C96.3383 241.483 87.961 153.522 117.281 125.112C124.566 118.01 137.86 147.512 142.413 142.413C161.899 120.377 172.826 122.381 180.111 151.883C189.945 191.22 195.773 64.8327 207.974 62.2831C223.272 59.1872 230.374 82.6799 230.374 82.6799" stroke="#EFB93F" stroke-miterlimit="10" stroke-dasharray="2.83 2.83"/>
    <path d="M242.758 91.4213C242.758 95.2457 240.026 98.5237 236.566 98.5237C233.106 98.5237 230.374 95.4278 230.374 91.4213C230.374 87.5969 233.106 84.3188 236.566 84.3188C240.026 84.3188 242.758 87.4148 242.758 91.4213Z" fill="#EFB93F"/>
    <g opacity="0.22">
        <path d="M168.856 309.709C191.064 297.916 199.507 270.353 187.714 248.146C175.921 225.938 148.358 217.495 126.15 229.288C103.942 241.081 95.4995 268.644 107.292 290.851C119.085 313.059 146.648 321.502 168.856 309.709Z" fill="#368D96"/>
    </g>
    <path d="M125.294 229.646C103.259 241.848 95.4277 269.711 107.629 291.747C119.831 313.783 147.695 321.614 169.73 309.412C191.766 297.21 199.597 269.347 187.395 247.311C175.012 225.275 147.33 217.444 125.294 229.646ZM166.999 304.677C147.695 315.422 123.109 308.501 112.364 289.197C101.62 269.893 108.54 245.308 127.844 234.563C147.148 223.818 171.734 230.739 182.478 250.043C193.223 269.347 186.303 293.75 166.999 304.677Z" fill="#368D96"/>
    <path d="M197.047 355.486C195.044 356.579 192.677 355.851 191.584 354.03L166.999 309.776C165.906 307.773 166.634 305.405 168.455 304.312C170.459 303.22 172.826 303.948 173.919 305.769L198.504 350.023C199.597 352.026 198.869 354.576 197.047 355.486Z" fill="#368D96"/>
</svg>
