<svg width="375" height="361" viewBox="0 0 375 361" fill="none" xmlns="http://www.w3.org/2000/svg">
    <path d="M273.956 62.5733C295.045 62.5733 312.141 48.5658 312.141 31.2867C312.141 14.0075 295.045 0 273.956 0C252.866 0 235.77 14.0075 235.77 31.2867C235.77 48.5658 252.866 62.5733 273.956 62.5733Z" fill="#EFB93F"/>
    <path d="M330.157 16.205C333.29 13.4774 337.794 11.873 342.689 11.873C349.935 11.873 356.201 15.5632 358.942 20.8579H286.684C287.859 11.2312 297.454 3.69032 309.008 3.69032C318.603 3.52987 326.828 8.82454 330.157 16.205Z" fill="white"/>
    <path d="M197.389 45.7269C192.298 41.7158 185.444 39.1487 178.003 39.1487C166.645 39.1487 157.05 44.7642 152.741 52.626H265.731C263.773 38.186 248.89 26.7944 230.679 26.7944C215.405 26.9549 202.48 34.8167 197.389 45.7269Z" fill="white"/>
    <path d="M197.389 45.7264C192.298 41.7153 185.444 39.1482 178.003 39.1482C166.645 39.1482 157.05 44.7637 152.741 52.6255H265.731C263.773 38.1855 248.89 26.7939 230.679 26.7939C215.405 26.9544 202.48 34.8162 197.389 45.7264Z" fill="#F0EFED"/>
    <path d="M330.157 16.205C333.29 13.4774 337.794 11.873 342.689 11.873C349.935 11.873 356.201 15.5632 358.943 20.8579H286.684C287.859 11.2312 297.454 3.69032 309.008 3.69032C318.603 3.52987 326.828 8.82454 330.157 16.205Z" fill="#F0EFED"/>
    <path d="M374.804 134.131C372.063 131.083 346.606 95.1434 340.927 87.1212C340.535 86.4794 339.36 86.6399 339.164 87.2817L304.504 167.023L275.326 127.553L247.715 173.922L277.676 221.413L375 243.875L374.804 134.131Z" fill="url(#paint0_linear_4_470)"/>
    <path d="M1.37073 91.9347C6.65794 86.1587 55.8094 17.328 66.5796 2.08577C67.3629 0.962663 69.5169 1.12311 70.1044 2.40667L136.684 154.829L192.689 79.42L320.757 295.699L0.783264 302.277L1.37073 91.9347Z" fill="url(#paint1_linear_4_470)"/>
    <g opacity="0.49">
        <path d="M50.3263 45.7267C52.2846 44.9244 54.8303 45.7267 55.4177 47.4916L63.8381 69.6329C65.013 72.5209 69.9086 72.3604 70.8877 69.4724L76.5665 51.6631C77.3498 49.4169 80.6788 48.6147 82.8329 50.2191L95.7571 60.8084L70.1044 2.40667C69.5169 1.12311 67.3629 0.962663 66.5796 2.08577C60.9007 10.108 44.4517 33.212 29.5692 53.9093L50.3263 45.7267Z" fill="white"/>
    </g>
    <g opacity="0.49">
        <path d="M182.898 113.755L192.298 129.318C193.277 131.083 196.41 130.923 197.389 129.158L202.676 117.445C203.46 116.001 205.614 115.52 207.18 116.643L221.084 127.393L192.689 79.4199L162.924 119.531L179.178 112.792C180.744 112.151 182.311 112.632 182.898 113.755Z" fill="white"/>
    </g>
    <g opacity="0.49">
        <path d="M347.389 105.091C346.41 104.77 345.431 105.091 345.039 105.893L341.319 116.001C340.731 117.285 338.577 117.285 338.185 116.001L335.64 107.979C335.248 107.016 333.682 106.535 332.898 107.337L327.024 112.151L338.577 85.6774C338.773 85.0356 339.752 85.0356 340.144 85.5169C342.689 89.2071 350.131 99.636 356.789 108.942L347.389 105.091Z" fill="white"/>
    </g>
    <path d="M44.8433 251.416C138.838 248.208 178.982 233.928 240.862 203.925C294.909 177.772 336.815 169.59 375 167.023V313.669L44.8433 251.416Z" fill="#D3EAE6"/>
    <path d="M372.846 193.336L372.258 281.58C372.258 281.58 342.689 276.606 326.828 265.375C319.778 260.401 313.316 256.069 308.42 252.7C302.741 248.849 295.3 246.764 287.663 246.764H287.076C286.88 246.764 286.684 246.603 286.88 246.443L289.621 241.95H279.047C278.851 241.95 278.655 241.79 278.851 241.629L283.551 234.249L265.535 234.409C265.339 234.409 265.144 234.249 265.339 234.089L271.997 223.499C271.997 223.339 271.997 223.178 271.801 223.178H269.06C268.864 223.178 268.668 223.018 268.864 222.857L273.956 213.872C273.956 213.712 273.956 213.552 273.76 213.552H271.997C271.801 213.552 271.606 213.391 271.801 213.231L275.326 205.209C275.326 205.048 275.718 205.048 275.914 205.209L280.026 213.07C280.026 213.231 280.026 213.391 279.83 213.391H278.264C278.068 213.391 277.872 213.552 278.068 213.712L283.159 222.697C283.159 222.857 283.159 223.018 282.963 223.018H280.418C280.222 223.018 280.026 223.178 280.222 223.339L283.747 228.473L287.859 221.253C287.859 221.093 287.859 220.932 287.663 220.932H285.901C285.705 220.932 285.509 220.772 285.705 220.611L289.23 212.589C289.23 212.428 289.621 212.428 289.817 212.589L293.929 220.451C293.929 220.611 293.929 220.772 293.734 220.772H292.167C291.971 220.772 291.775 220.932 291.971 221.092L294.125 224.783L297.454 217.402C297.454 217.242 297.846 217.242 298.042 217.402L299.804 220.611L304.7 212.91C304.7 212.749 304.7 212.589 304.504 212.589H301.762C301.566 212.589 301.371 212.428 301.567 212.268L306.658 203.283C306.658 203.123 306.658 202.962 306.462 202.962H304.7C304.504 202.962 304.308 202.802 304.504 202.641L308.029 194.619C308.029 194.459 308.42 194.459 308.616 194.619L312.728 202.481C312.728 202.641 312.728 202.802 312.533 202.802H310.966C310.77 202.802 310.574 202.962 310.77 203.123L315.862 212.108C315.862 212.268 315.862 212.429 315.666 212.429H313.12C312.924 212.429 312.728 212.589 312.924 212.749L315.47 216.44L321.345 207.134C321.54 206.973 321.345 206.813 320.953 206.813H317.82C317.624 206.813 317.428 206.653 317.428 206.492L323.499 195.742C323.694 195.582 323.499 195.421 323.107 195.421H321.149C320.953 195.421 320.757 195.261 320.757 195.101L325.065 185.634C325.261 185.474 325.653 185.313 325.653 185.634L330.548 195.101C330.548 195.261 330.548 195.421 330.157 195.421L328.198 195.582C328.003 195.582 327.807 195.742 327.807 195.903L333.094 205.048L337.01 198.63C337.206 198.47 337.01 198.309 336.619 198.309H333.486C333.29 198.309 333.094 198.149 333.094 197.989L339.164 187.239C339.36 187.078 339.164 186.918 338.773 186.918H336.815C336.619 186.918 336.423 186.757 336.423 186.597L340.731 177.131C340.927 176.97 341.318 176.81 341.318 177.131L346.214 186.597C346.214 186.757 346.214 186.918 345.822 186.918H343.864C343.668 186.918 343.473 187.078 343.473 187.239L347.976 195.261L351.697 189.164C351.893 189.004 351.697 188.843 351.305 188.843H348.172C347.976 188.843 347.781 188.683 347.781 188.522L353.851 177.772C353.851 177.612 353.851 177.452 353.459 177.452H351.501C351.305 177.452 351.11 177.291 351.11 177.131L355.418 167.664C355.614 167.504 356.005 167.344 356.005 167.664L361.097 177.131C361.097 177.291 361.097 177.452 360.705 177.452L358.747 177.612C358.551 177.612 358.355 177.773 358.355 177.933L362.859 185.795L366.384 180.34C366.58 180.179 366.384 180.019 365.992 180.019H362.859C362.663 180.019 362.467 179.858 362.467 179.698L368.538 168.948C368.734 168.788 368.538 168.627 368.146 168.627H366.188C365.992 168.627 365.796 168.467 365.796 168.306L370.104 158.84C370.3 158.68 370.692 158.519 370.692 158.84M373.825 168.467C373.629 168.467 373.433 168.627 373.433 168.788ZM329.961 207.455C329.765 207.455 329.569 207.615 329.569 207.776L330.157 208.738L330.94 207.455H329.961ZM294.713 227.35L295.3 226.227C295.3 226.066 295.3 225.906 295.104 225.906H293.734L294.713 227.35ZM285.117 231.361L285.313 230.88C285.313 230.719 285.313 230.559 285.117 230.559H284.53L285.117 231.361Z" fill="url(#paint2_linear_4_470)"/>
    <g opacity="0.15">
        <path d="M236.945 240.025C248.499 233.126 253.003 221.092 257.898 210.503C262.598 200.395 264.36 195.261 275.718 188.843L270.235 190.768C262.99 193.015 256.136 201.358 252.807 209.059C248.89 218.525 247.128 220.451 244.191 225.264C241.841 229.115 235.966 236.655 226.958 242.111" fill="#338E70"/>
    </g>
    <path d="M1.17493 232.644V361H374.217V239.383C369.517 240.185 319.582 213.552 178.59 254.144C83.812 281.58 20.1697 232.484 1.17493 232.644Z" fill="#F0F8F7"/>
    <g opacity="0.32">
        <path d="M237.728 359.877C236.945 350.571 223.238 343.191 219.909 339.34C208.355 325.702 206.984 313.669 206.005 295.378C205.026 277.89 199.935 262.648 182.702 252.7L189.164 251.256C198.956 256.872 209.138 267.622 215.013 279.976C219.517 289.442 224.021 308.054 228.525 317.52C234.987 331.478 243.211 335.65 258.29 342.71C273.368 349.769 279.439 355.545 283.747 361" fill="#338E70"/>
    </g>
    <path d="M0.783289 220.772L1.37075 321.37C1.37075 321.37 32.8982 315.594 50.1305 302.759C57.5718 297.143 64.6214 292.009 69.7128 288.319C75.7833 283.826 83.812 281.42 92.0365 281.58H92.8198C93.0157 281.58 93.2115 281.42 93.0157 281.259L89.8825 276.125H101.24C101.436 276.125 101.632 275.965 101.436 275.804L96.5405 267.301L115.927 267.461C116.123 267.461 116.319 267.301 116.123 267.14L109.073 255.107C108.877 254.946 109.073 254.786 109.269 254.786H112.206C112.402 254.786 112.598 254.625 112.598 254.465L107.115 244.197C107.115 244.036 107.115 243.876 107.311 243.876H109.073C109.269 243.876 109.465 243.715 109.269 243.555L105.352 234.57C105.352 234.409 104.961 234.409 104.765 234.57L100.261 243.555C100.261 243.715 100.261 243.876 100.457 243.876H102.219C102.415 243.876 102.611 244.036 102.415 244.197L96.9321 254.465C96.9321 254.625 96.9321 254.786 97.1279 254.786H99.8694C100.065 254.786 100.261 254.946 100.065 255.107L96.3447 261.043L92.0365 252.861C92.0365 252.7 92.0365 252.54 92.2324 252.54H93.9948C94.1906 252.54 94.3864 252.379 94.1906 252.219L90.2741 243.234C90.2741 243.073 89.8825 243.073 89.6867 243.234L85.1828 252.219C85.1828 252.379 85.1828 252.54 85.3786 252.54H87.141C87.3368 252.54 87.5326 252.7 87.3368 252.861L85.1828 257.032L81.658 248.529C81.658 248.368 81.2663 248.368 81.0705 248.529L79.3081 252.219L74.2167 243.394C74.0209 243.234 74.2167 243.073 74.4125 243.073H77.3499C77.5457 243.073 77.7415 242.913 77.7415 242.753L72.2585 232.484C72.2585 232.324 72.2585 232.163 72.4543 232.163H74.2167C74.4125 232.163 74.6084 232.003 74.4125 231.842L70.4961 222.857C70.4961 222.697 70.1044 222.697 69.9086 222.857L65.4047 231.842C65.4047 232.003 65.4047 232.163 65.6005 232.163H67.3629C67.5587 232.163 67.7546 232.324 67.5587 232.484L62.0757 242.753C62.0757 242.913 62.0757 243.073 62.2715 243.073H65.013C65.2089 243.073 65.4047 243.234 65.2089 243.394L62.4674 247.566L56.201 236.977C56.0052 236.816 56.201 236.495 56.5927 236.495H60.1175C60.3133 236.495 60.5091 236.335 60.5091 236.014L54.047 223.82C53.8512 223.66 54.047 223.339 54.4386 223.339H56.5927C56.7885 223.339 56.9843 223.178 56.9843 222.857L52.2846 211.947C52.0888 211.626 51.6971 211.626 51.5013 211.947L46.2141 222.697C46.2141 222.857 46.2141 223.178 46.6057 223.178L48.564 223.339C48.7598 223.339 48.9556 223.499 48.9556 223.82L43.2768 234.249L38.9687 227.029C38.7728 226.869 38.9687 226.548 39.3603 226.548H42.8851C43.0809 226.548 43.2768 226.387 43.2768 226.066L36.8146 213.873C36.6188 213.712 36.8146 213.391 37.2063 213.391H39.3603C39.5561 213.391 39.752 213.231 39.752 212.91L35.0522 202C34.8564 201.679 34.4647 201.679 34.2689 202L28.9817 212.749C28.9817 212.91 28.9817 213.231 29.3734 213.231L31.3316 213.391C31.5274 213.391 31.7232 213.552 31.7232 213.873L26.8277 223.018L22.7154 216.119C22.5196 215.958 22.7154 215.637 23.1071 215.637L26.6319 215.798C26.8277 215.798 27.0235 215.637 27.0235 215.317L20.5614 203.123C20.3655 202.962 20.5614 202.641 20.953 202.641H23.1071C23.3029 202.641 23.4987 202.481 23.4987 202.16L18.9948 191.25C18.799 190.929 18.4073 190.929 18.2115 191.25L12.7285 202C12.7285 202.16 12.7285 202.481 13.1201 202.481L15.0783 202.641C15.2741 202.641 15.47 202.802 15.47 203.123L10.5744 212.108L6.85379 205.85C6.65796 205.69 6.85378 205.369 7.24543 205.369H10.7702C10.9661 205.369 11.1619 205.209 11.1619 204.888L4.69974 192.694C4.50392 192.533 4.69974 192.213 5.09138 192.213H7.24543C7.44125 192.213 7.63707 192.052 7.63707 191.731L2.93734 180.821C2.74151 180.5 2.34987 180.5 2.15405 180.821M0 192.533C0.195822 192.533 0.391643 192.694 0.391643 193.015ZM46.9974 236.816C47.1932 236.816 47.389 237.137 47.389 237.297L46.8016 238.421L45.8225 236.977L46.9974 236.816ZM84.5953 259.439L83.812 258.155C83.812 257.995 83.812 257.834 84.0078 257.834H85.3786L84.5953 259.439ZM94.9739 264.092L94.5822 263.61C94.3864 263.45 94.5822 263.289 94.7781 263.289H95.3655L94.9739 264.092Z" fill="url(#paint3_linear_4_470)"/>
    <defs>
        <linearGradient id="paint0_linear_4_470" x1="375.137" y1="165.403" x2="247.746" y2="165.403" gradientUnits="userSpaceOnUse">
            <stop stop-color="#4BAB83" stop-opacity="0.2"/>
            <stop offset="1" stop-color="#4AB2C5"/>
        </linearGradient>
        <linearGradient id="paint1_linear_4_470" x1="0.759961" y1="151.746" x2="320.742" y2="151.746" gradientUnits="userSpaceOnUse">
            <stop stop-color="#4BAB83" stop-opacity="0.2"/>
            <stop offset="1" stop-color="#4AB2C5"/>
        </linearGradient>
        <linearGradient id="paint2_linear_4_470" x1="286.359" y1="179.291" x2="399.516" y2="283.429" gradientUnits="userSpaceOnUse">
            <stop stop-color="#4BAB83"/>
            <stop offset="1" stop-color="#3BA089"/>
        </linearGradient>
        <linearGradient id="paint3_linear_4_470" x1="93.6333" y1="204.751" x2="-34.5086" y2="315.565" gradientUnits="userSpaceOnUse">
            <stop stop-color="#4BAB83"/>
            <stop offset="1" stop-color="#3BA089"/>
        </linearGradient>
    </defs>
</svg>
