<svg width="337" height="196" viewBox="0 0 337 196" fill="none" xmlns="http://www.w3.org/2000/svg">
    <path opacity="0.7" d="M316.856 196H24.1443C12.9938 196 4 186.906 4 175.735V23.2648C4 12.0476 13.0397 3 24.1443 3H316.856C328.006 3 337 12.0938 337 23.2648V175.689C337 186.906 327.96 196 316.856 196Z" fill="black"/>
    <path d="M313.096 192H20.1598C9.00072 192 0 182.953 0 171.84V20.1598C0 9.00072 9.04664 0 20.1598 0H313.096C324.255 0 333.256 9.04664 333.256 20.1598V171.794C333.256 182.953 324.21 192 313.096 192Z" fill="#50A898"/>
    <path d="M129.246 153.364V151.818H137.37V153.364H134.223V162H132.393V153.364H129.246Z" fill="white"/>
    <path d="M126.135 154.617C126.089 154.183 125.893 153.845 125.549 153.603C125.207 153.361 124.763 153.24 124.216 153.24C123.832 153.24 123.502 153.298 123.227 153.414C122.952 153.53 122.741 153.687 122.596 153.886C122.45 154.085 122.375 154.312 122.372 154.567C122.372 154.78 122.42 154.964 122.516 155.119C122.615 155.275 122.75 155.408 122.919 155.517C123.088 155.623 123.275 155.713 123.48 155.785C123.686 155.858 123.893 155.92 124.102 155.969L125.056 156.208C125.441 156.298 125.81 156.419 126.165 156.571C126.523 156.723 126.843 156.916 127.125 157.148C127.41 157.38 127.635 157.66 127.801 157.988C127.966 158.316 128.049 158.7 128.049 159.141C128.049 159.738 127.897 160.263 127.592 160.717C127.287 161.168 126.846 161.521 126.27 161.776C125.696 162.028 125.002 162.154 124.186 162.154C123.394 162.154 122.707 162.031 122.123 161.786C121.543 161.541 121.089 161.183 120.761 160.712C120.436 160.242 120.261 159.668 120.234 158.992H122.049C122.075 159.347 122.185 159.642 122.377 159.877C122.569 160.112 122.819 160.288 123.127 160.404C123.439 160.52 123.787 160.578 124.172 160.578C124.573 160.578 124.924 160.518 125.225 160.399C125.53 160.276 125.769 160.107 125.941 159.892C126.114 159.673 126.202 159.418 126.205 159.126C126.202 158.861 126.124 158.642 125.971 158.47C125.819 158.294 125.605 158.149 125.33 158.033C125.058 157.913 124.74 157.807 124.375 157.714L123.217 157.416C122.378 157.201 121.716 156.874 121.228 156.437C120.744 155.996 120.502 155.411 120.502 154.682C120.502 154.082 120.665 153.557 120.99 153.106C121.318 152.655 121.764 152.305 122.327 152.057C122.89 151.805 123.529 151.679 124.241 151.679C124.964 151.679 125.597 151.805 126.14 152.057C126.687 152.305 127.116 152.652 127.428 153.096C127.739 153.537 127.9 154.044 127.91 154.617H126.135Z" fill="white"/>
    <path d="M116.753 151.818H118.597V158.47C118.597 159.199 118.425 159.841 118.08 160.394C117.739 160.948 117.258 161.38 116.638 161.692C116.019 162 115.294 162.154 114.466 162.154C113.634 162.154 112.908 162 112.288 161.692C111.668 161.38 111.188 160.948 110.846 160.394C110.505 159.841 110.334 159.199 110.334 158.47V151.818H112.179V158.316C112.179 158.74 112.272 159.118 112.457 159.45C112.646 159.781 112.911 160.041 113.253 160.23C113.594 160.416 113.998 160.509 114.466 160.509C114.933 160.509 115.337 160.416 115.679 160.23C116.024 160.041 116.289 159.781 116.474 159.45C116.66 159.118 116.753 158.74 116.753 158.316V151.818Z" fill="white"/>
    <path d="M102.405 162V151.818H104.249V160.454H108.734V162H102.405Z" fill="white"/>
    <path d="M93.2992 162V151.818H97.1174C97.8996 151.818 98.5558 151.954 99.0861 152.226C99.6197 152.498 100.022 152.879 100.294 153.369C100.569 153.857 100.707 154.425 100.707 155.075C100.707 155.728 100.568 156.294 100.289 156.775C100.014 157.252 99.6081 157.622 99.0712 157.884C98.5343 158.142 97.8747 158.271 97.0925 158.271H94.3731V156.74H96.8439C97.3013 156.74 97.6759 156.677 97.9675 156.551C98.2592 156.422 98.4746 156.235 98.6138 155.989C98.7563 155.741 98.8276 155.436 98.8276 155.075C98.8276 154.713 98.7563 154.405 98.6138 154.15C98.4713 153.891 98.2542 153.696 97.9625 153.563C97.6709 153.427 97.2947 153.359 96.834 153.359H95.1437V162H93.2992ZM98.5591 157.386L101.08 162H99.0215L96.5456 157.386H98.5591Z" fill="white"/>
    <path d="M84.7953 162V151.818H91.4174V153.364H86.6397V156.129H91.0744V157.675H86.6397V160.454H91.4572V162H84.7953Z" fill="white"/>
    <path d="M78.101 162H74.6508V151.818H78.1706C79.1815 151.818 80.0499 152.022 80.7758 152.43C81.5049 152.834 82.0651 153.416 82.4562 154.175C82.8473 154.934 83.0428 155.842 83.0428 156.899C83.0428 157.96 82.8456 158.871 82.4512 159.634C82.0601 160.396 81.495 160.981 80.7559 161.388C80.0201 161.796 79.1351 162 78.101 162ZM76.4952 160.404H78.0116C78.7208 160.404 79.3125 160.275 79.7864 160.016C80.2604 159.754 80.6167 159.365 80.8553 158.848C81.0939 158.328 81.2133 157.678 81.2133 156.899C81.2133 156.12 81.0939 155.474 80.8553 154.96C80.6167 154.443 80.2637 154.057 79.7964 153.802C79.3323 153.543 78.7556 153.414 78.0662 153.414H76.4952V160.404Z" fill="white"/>
    <path d="M72.641 151.818V162H71.0004L66.2028 155.065H66.1183V162H64.2738V151.818H65.9244L70.717 158.759H70.8065V151.818H72.641Z" fill="white"/>
    <path d="M55.4504 162H53.4817L57.0662 151.818H59.3432L62.9327 162H60.9639L58.2445 153.906H58.1649L55.4504 162ZM55.5151 158.008H60.8844V159.489H55.5151V158.008Z" fill="white"/>
    <path d="M43.147 162L40.2734 151.818H42.2571L44.0916 159.3H44.1861L46.1449 151.818H47.9496L49.9134 159.305H50.0028L51.8374 151.818H53.821L50.9474 162H49.1278L47.0895 154.856H47.0099L44.9666 162H43.147Z" fill="white"/>
    <path d="M327.791 25.0275H5.46472V56.4381H327.791V25.0275Z" fill="#F1F1FA"/>
    <path d="M19.749 21C19.6453 21 19.5383 20.9907 19.428 20.9722C19.3243 20.9599 19.2205 20.9352 19.1167 20.8981V20.25C19.1816 20.2562 19.2626 20.2654 19.3599 20.2778C19.4637 20.2963 19.5674 20.3056 19.6712 20.3056C19.989 20.3056 20.2322 20.2407 20.4008 20.1111C20.5694 19.9877 20.7348 19.7469 20.8969 19.3889L21.2276 18.6481L21.2082 19.2593L19 14H19.7879L21.5973 18.3426H21.393L23.1926 14H24L21.6167 19.5926C21.513 19.8333 21.38 20.0617 21.2179 20.2778C21.0623 20.4938 20.8645 20.6667 20.6245 20.7963C20.3846 20.9321 20.0927 21 19.749 21Z" fill="white"/>
    <path d="M12 19V12H12.6364L15.1818 15.8148H14.8273L17.3636 12H18V19H17.2727V13.0148L17.5091 13.1087L15.0182 16.8389H14.9818L12.5 13.1087L12.7273 13.0148V19H12Z" fill="white"/>
    <path d="M227.636 95.9771H14.5114V123.99H227.636V95.9771Z" fill="white"/>
    <path d="M226.984 130.497H227.327L228.101 132.549C228.337 133.18 228.486 133.605 228.549 133.825H228.569C228.663 133.535 228.817 133.103 229.03 132.529L229.804 130.497H230.147L228.508 134.747C228.376 135.092 228.265 135.325 228.175 135.447C228.085 135.568 227.98 135.659 227.859 135.719C227.74 135.78 227.595 135.81 227.425 135.81C227.297 135.81 227.154 135.786 226.997 135.739V135.45C227.127 135.486 227.268 135.504 227.418 135.504C227.532 135.504 227.633 135.477 227.721 135.423C227.808 135.369 227.887 135.285 227.956 135.171C228.028 135.058 228.11 134.879 228.202 134.632C228.296 134.388 228.357 134.228 228.384 134.154L226.984 130.497Z" fill="white"/>
    <path d="M226.082 134.154V131.782C226.082 131.414 226.005 131.147 225.85 130.981C225.695 130.813 225.455 130.729 225.13 130.729C224.692 130.729 224.371 130.84 224.167 131.062C223.965 131.282 223.864 131.64 223.864 132.135V134.154H223.531V130.497H223.814L223.878 130.998H223.898C224.136 130.617 224.559 130.426 225.167 130.426C225.997 130.426 226.412 130.871 226.412 131.762V134.154H226.082Z" fill="white"/>
    <path d="M222.519 132.32C222.519 132.917 222.374 133.384 222.084 133.72C221.795 134.054 221.396 134.222 220.887 134.222C220.566 134.222 220.283 134.144 220.039 133.989C219.794 133.835 219.607 133.613 219.477 133.323C219.347 133.034 219.281 132.7 219.281 132.32C219.281 131.724 219.426 131.259 219.716 130.927C220.005 130.593 220.402 130.426 220.907 130.426C221.409 130.426 221.803 130.595 222.088 130.934C222.375 131.271 222.519 131.733 222.519 132.32ZM219.631 132.32C219.631 132.823 219.741 133.216 219.961 133.498C220.183 133.779 220.496 133.919 220.9 133.919C221.304 133.919 221.616 133.779 221.835 133.498C222.058 133.216 222.169 132.823 222.169 132.32C222.169 131.816 222.056 131.424 221.832 131.146C221.61 130.868 221.297 130.729 220.893 130.729C220.49 130.729 220.178 130.868 219.958 131.146C219.74 131.422 219.631 131.813 219.631 132.32Z" fill="white"/>
    <path d="M215.792 134.154L213.958 129.612H213.931C213.949 129.89 213.958 130.175 213.958 130.466V134.154H213.628V129.235H214.16L215.903 133.562H215.923L217.666 129.235H218.185V134.154H217.838V130.426C217.838 130.166 217.851 129.897 217.878 129.618H217.851L216.011 134.154H215.792Z" fill="white"/>
    <path d="M210.24 134.154V131.782C210.24 131.414 210.162 131.147 210.008 130.981C209.853 130.813 209.613 130.729 209.288 130.729C208.85 130.729 208.529 130.84 208.325 131.062C208.123 131.282 208.022 131.64 208.022 132.135V134.154H207.689V130.497H207.972L208.036 130.998H208.056C208.294 130.617 208.717 130.426 209.325 130.426C210.155 130.426 210.57 130.871 210.57 131.762V134.154H210.24Z" fill="white"/>
    <path d="M206.676 132.32C206.676 132.917 206.532 133.384 206.242 133.72C205.953 134.054 205.554 134.222 205.044 134.222C204.724 134.222 204.441 134.144 204.196 133.989C203.952 133.835 203.765 133.613 203.634 133.323C203.504 133.034 203.439 132.7 203.439 132.32C203.439 131.724 203.584 131.259 203.873 130.927C204.163 130.593 204.56 130.426 205.065 130.426C205.567 130.426 205.961 130.595 206.246 130.934C206.533 131.271 206.676 131.733 206.676 132.32ZM203.789 132.32C203.789 132.823 203.899 133.216 204.119 133.498C204.341 133.779 204.654 133.919 205.058 133.919C205.462 133.919 205.773 133.779 205.993 133.498C206.215 133.216 206.326 132.823 206.326 132.32C206.326 131.816 206.214 131.424 205.99 131.146C205.768 130.868 205.455 130.729 205.051 130.729C204.647 130.729 204.336 130.868 204.116 131.146C203.898 131.422 203.789 131.813 203.789 132.32Z" fill="white"/>
    <path d="M202.423 134.154H202.09V130.497H202.423V134.154ZM202.043 129.481C202.043 129.265 202.114 129.158 202.255 129.158C202.324 129.158 202.378 129.186 202.416 129.242C202.457 129.298 202.477 129.377 202.477 129.481C202.477 129.582 202.457 129.661 202.416 129.719C202.378 129.778 202.324 129.807 202.255 129.807C202.114 129.807 202.043 129.698 202.043 129.481Z" fill="white"/>
    <path d="M200.747 133.925C200.958 133.925 201.142 133.907 201.299 133.872V134.141C201.138 134.195 200.951 134.222 200.741 134.222C200.418 134.222 200.179 134.135 200.024 133.962C199.871 133.79 199.795 133.518 199.795 133.148V130.786H199.253V130.591L199.795 130.439L199.963 129.612H200.135V130.497H201.208V130.786H200.135V133.101C200.135 133.381 200.184 133.589 200.283 133.724C200.382 133.858 200.536 133.925 200.747 133.925Z" fill="white"/>
    <path d="M198.348 134.154L198.264 133.576H198.237C198.053 133.811 197.864 133.978 197.668 134.077C197.475 134.173 197.247 134.222 196.982 134.222C196.623 134.222 196.344 134.13 196.144 133.946C195.944 133.762 195.845 133.507 195.845 133.182C195.845 132.825 195.993 132.548 196.289 132.351C196.587 132.153 197.018 132.049 197.581 132.038L198.277 132.018V131.775C198.277 131.428 198.207 131.165 198.065 130.988C197.924 130.811 197.696 130.722 197.382 130.722C197.044 130.722 196.693 130.816 196.329 131.005L196.205 130.715C196.606 130.527 197.003 130.433 197.396 130.433C197.797 130.433 198.097 130.537 198.294 130.746C198.494 130.954 198.594 131.28 198.594 131.722V134.154H198.348ZM197.002 133.919C197.392 133.919 197.7 133.808 197.924 133.586C198.151 133.361 198.264 133.051 198.264 132.654V132.294L197.625 132.321C197.111 132.345 196.744 132.426 196.524 132.563C196.307 132.697 196.198 132.908 196.198 133.195C196.198 133.424 196.267 133.603 196.407 133.73C196.548 133.856 196.746 133.919 197.002 133.919Z" fill="white"/>
    <path d="M194.31 134.222C193.788 134.222 193.378 134.057 193.082 133.727C192.786 133.397 192.638 132.937 192.638 132.347C192.638 131.742 192.791 131.271 193.099 130.934C193.406 130.595 193.827 130.426 194.361 130.426C194.677 130.426 194.98 130.481 195.269 130.591L195.178 130.887C194.862 130.782 194.587 130.729 194.354 130.729C193.905 130.729 193.565 130.868 193.334 131.146C193.103 131.422 192.988 131.82 192.988 132.341C192.988 132.834 193.103 133.221 193.334 133.502C193.565 133.78 193.888 133.919 194.303 133.919C194.635 133.919 194.944 133.859 195.229 133.74V134.05C194.996 134.164 194.689 134.222 194.31 134.222Z" fill="white"/>
    <path d="M191.622 134.154H191.288V130.497H191.622V134.154ZM191.241 129.481C191.241 129.265 191.312 129.158 191.453 129.158C191.523 129.158 191.577 129.186 191.615 129.242C191.655 129.298 191.675 129.377 191.675 129.481C191.675 129.582 191.655 129.661 191.615 129.719C191.577 129.778 191.523 129.807 191.453 129.807C191.312 129.807 191.241 129.698 191.241 129.481Z" fill="white"/>
    <path d="M190.06 134.154H189.727V128.919H190.06V134.154Z" fill="white"/>
    <path d="M187.187 134.222C186.623 134.222 186.213 134.011 185.955 133.589H185.931L185.941 133.872C185.95 134.038 185.955 134.219 185.955 134.417V135.81H185.622V130.497H185.904L185.968 131.018H185.989C186.24 130.623 186.641 130.426 187.193 130.426C187.687 130.426 188.063 130.589 188.321 130.914C188.581 131.237 188.711 131.708 188.711 132.327C188.711 132.928 188.574 133.395 188.3 133.727C188.029 134.057 187.658 134.222 187.187 134.222ZM187.18 133.926C187.554 133.926 187.844 133.786 188.048 133.508C188.254 133.23 188.358 132.841 188.358 132.341C188.358 131.266 187.969 130.729 187.193 130.729C186.767 130.729 186.454 130.847 186.254 131.082C186.055 131.315 185.955 131.697 185.955 132.226V132.334C185.955 132.906 186.05 133.314 186.241 133.559C186.434 133.803 186.747 133.926 187.18 133.926Z" fill="white"/>
    <path d="M183.081 134.222C182.518 134.222 182.108 134.011 181.85 133.589H181.826L181.836 133.872C181.845 134.038 181.85 134.219 181.85 134.417V135.81H181.517V130.497H181.799L181.863 131.018H181.883C182.135 130.623 182.536 130.426 183.088 130.426C183.582 130.426 183.957 130.589 184.215 130.914C184.476 131.237 184.606 131.708 184.606 132.327C184.606 132.928 184.469 133.395 184.195 133.727C183.924 134.057 183.552 134.222 183.081 134.222ZM183.075 133.926C183.449 133.926 183.739 133.786 183.943 133.508C184.149 133.23 184.252 132.841 184.252 132.341C184.252 131.266 183.864 130.729 183.088 130.729C182.662 130.729 182.349 130.847 182.149 131.082C181.95 131.315 181.85 131.697 181.85 132.226V132.334C181.85 132.906 181.945 133.314 182.136 133.559C182.329 133.803 182.642 133.926 183.075 133.926Z" fill="white"/>
    <path d="M179.831 132.418H177.832L177.146 134.154H176.765L178.744 129.214H178.963L180.901 134.154H180.514L179.831 132.418ZM177.957 132.108H179.716L179.047 130.335C178.991 130.196 178.923 130.003 178.845 129.756C178.784 129.971 178.718 130.167 178.646 130.342L177.957 132.108Z" fill="white"/>
    <path d="M174.834 130.497V130.729L174.077 130.776C174.279 131.027 174.38 131.303 174.38 131.604C174.38 131.956 174.262 132.242 174.026 132.462C173.793 132.679 173.479 132.788 173.084 132.788C172.918 132.788 172.801 132.781 172.734 132.768C172.602 132.838 172.501 132.919 172.431 133.014C172.362 133.108 172.327 133.208 172.327 133.313C172.327 133.43 172.371 133.515 172.458 133.569C172.548 133.623 172.697 133.65 172.906 133.65H173.545C173.942 133.65 174.246 133.73 174.457 133.892C174.668 134.051 174.773 134.288 174.773 134.602C174.773 134.988 174.616 135.285 174.302 135.494C173.99 135.704 173.545 135.81 172.966 135.81C172.506 135.81 172.15 135.721 171.896 135.544C171.645 135.367 171.519 135.12 171.519 134.804C171.519 134.553 171.597 134.344 171.752 134.178C171.909 134.012 172.121 133.899 172.388 133.838C172.278 133.791 172.189 133.725 172.122 133.639C172.057 133.552 172.024 133.452 172.024 133.34C172.024 133.095 172.18 132.88 172.492 132.694C172.279 132.606 172.113 132.47 171.994 132.283C171.875 132.095 171.816 131.88 171.816 131.637C171.816 131.272 171.931 130.979 172.162 130.759C172.395 130.537 172.709 130.426 173.104 130.426C173.344 130.426 173.531 130.45 173.663 130.497H174.834ZM171.873 134.773C171.873 135.276 172.246 135.527 172.993 135.527C173.953 135.527 174.433 135.221 174.433 134.609C174.433 134.389 174.358 134.229 174.208 134.131C174.058 134.032 173.814 133.983 173.478 133.983H172.879C172.208 133.983 171.873 134.246 171.873 134.773ZM172.152 131.637C172.152 131.92 172.237 132.14 172.408 132.297C172.58 132.452 172.81 132.529 173.098 132.529C173.403 132.529 173.636 132.452 173.797 132.297C173.961 132.142 174.043 131.918 174.043 131.624C174.043 131.312 173.959 131.079 173.791 130.924C173.625 130.767 173.391 130.688 173.091 130.688C172.799 130.688 172.569 130.773 172.401 130.941C172.235 131.107 172.152 131.339 172.152 131.637Z" fill="white"/>
    <path d="M170.466 134.154V131.782C170.466 131.414 170.389 131.147 170.234 130.981C170.079 130.813 169.839 130.729 169.514 130.729C169.076 130.729 168.756 130.84 168.551 131.062C168.35 131.282 168.249 131.64 168.249 132.135V134.154H167.916V130.497H168.198L168.262 130.998H168.282C168.52 130.617 168.943 130.426 169.551 130.426C170.381 130.426 170.796 130.871 170.796 131.762V134.154H170.466Z" fill="white"/>
    <path d="M166.687 134.154H166.354V130.497H166.687V134.154ZM166.307 129.481C166.307 129.265 166.378 129.158 166.519 129.158C166.589 129.158 166.643 129.186 166.681 129.242C166.721 129.298 166.741 129.377 166.741 129.481C166.741 129.582 166.721 129.661 166.681 129.719C166.643 129.778 166.589 129.807 166.519 129.807C166.378 129.807 166.307 129.698 166.307 129.481Z" fill="white"/>
    <path d="M165.6 130.497V130.729L164.843 130.776C165.045 131.027 165.146 131.303 165.146 131.604C165.146 131.956 165.028 132.242 164.793 132.462C164.56 132.679 164.246 132.788 163.851 132.788C163.685 132.788 163.568 132.781 163.501 132.768C163.368 132.838 163.267 132.919 163.198 133.014C163.128 133.108 163.094 133.208 163.094 133.313C163.094 133.43 163.137 133.515 163.225 133.569C163.315 133.623 163.464 133.65 163.672 133.65H164.312C164.709 133.65 165.013 133.73 165.224 133.892C165.434 134.051 165.54 134.288 165.54 134.602C165.54 134.988 165.383 135.285 165.069 135.494C164.757 135.704 164.312 135.81 163.733 135.81C163.273 135.81 162.916 135.721 162.663 135.544C162.412 135.367 162.286 135.12 162.286 134.804C162.286 134.553 162.363 134.344 162.518 134.178C162.675 134.012 162.887 133.899 163.154 133.838C163.044 133.791 162.956 133.725 162.888 133.639C162.823 133.552 162.791 133.452 162.791 133.34C162.791 133.095 162.947 132.88 163.258 132.694C163.045 132.606 162.879 132.47 162.76 132.283C162.642 132.095 162.582 131.88 162.582 131.637C162.582 131.272 162.698 130.979 162.929 130.759C163.162 130.537 163.476 130.426 163.871 130.426C164.111 130.426 164.297 130.45 164.429 130.497H165.6ZM162.639 134.773C162.639 135.276 163.013 135.527 163.76 135.527C164.72 135.527 165.2 135.221 165.2 134.609C165.2 134.389 165.125 134.229 164.975 134.131C164.824 134.032 164.581 133.983 164.244 133.983H163.645C162.975 133.983 162.639 134.246 162.639 134.773ZM162.919 131.637C162.919 131.92 163.004 132.14 163.174 132.297C163.347 132.452 163.577 132.529 163.864 132.529C164.169 132.529 164.403 132.452 164.564 132.297C164.728 132.142 164.81 131.918 164.81 131.624C164.81 131.312 164.726 131.079 164.557 130.924C164.391 130.767 164.158 130.688 163.857 130.688C163.566 130.688 163.336 130.773 163.168 130.941C163.002 131.107 162.919 131.339 162.919 131.637Z" fill="white"/>
    <path d="M161.502 130.426C161.657 130.426 161.823 130.442 162 130.473L161.936 130.793C161.783 130.755 161.625 130.736 161.462 130.736C161.15 130.736 160.894 130.868 160.694 131.133C160.495 131.397 160.395 131.732 160.395 132.135V134.154H160.062V130.497H160.344L160.378 131.156H160.402C160.552 130.887 160.712 130.699 160.883 130.591C161.053 130.481 161.26 130.426 161.502 130.426Z" fill="white"/>
    <path d="M158.628 134.154L158.544 133.576H158.517C158.333 133.811 158.144 133.978 157.949 134.077C157.756 134.173 157.527 134.222 157.262 134.222C156.903 134.222 156.624 134.13 156.424 133.946C156.225 133.762 156.125 133.507 156.125 133.182C156.125 132.825 156.273 132.548 156.569 132.351C156.867 132.153 157.298 132.049 157.861 132.038L158.558 132.018V131.775C158.558 131.428 158.487 131.165 158.346 130.988C158.204 130.811 157.977 130.722 157.663 130.722C157.324 130.722 156.973 130.816 156.609 131.005L156.485 130.715C156.886 130.527 157.283 130.433 157.676 130.433C158.078 130.433 158.377 130.537 158.574 130.746C158.774 130.954 158.874 131.28 158.874 131.722V134.154H158.628ZM157.282 133.919C157.673 133.919 157.98 133.808 158.204 133.586C158.431 133.361 158.544 133.051 158.544 132.654V132.294L157.905 132.321C157.391 132.345 157.024 132.426 156.804 132.563C156.587 132.697 156.478 132.908 156.478 133.195C156.478 133.424 156.548 133.603 156.687 133.73C156.828 133.856 157.027 133.919 157.282 133.919Z" fill="white"/>
    <path d="M154.893 134.154V131.782C154.893 131.414 154.816 131.147 154.661 130.981C154.506 130.813 154.266 130.729 153.941 130.729C153.504 130.729 153.183 130.84 152.979 131.062C152.777 131.282 152.676 131.64 152.676 132.135V134.154H152.343V128.919H152.676V130.584L152.659 131.052H152.683C152.819 130.832 152.992 130.673 153.201 130.574C153.409 130.475 153.668 130.426 153.978 130.426C154.808 130.426 155.223 130.871 155.223 131.762V134.154H154.893Z" fill="white"/>
    <path d="M150.246 129.474C149.629 129.474 149.144 129.671 148.789 130.066C148.435 130.461 148.258 131.002 148.258 131.688C148.258 132.39 148.425 132.935 148.759 133.323C149.093 133.712 149.571 133.906 150.192 133.906C150.605 133.906 150.984 133.853 151.33 133.747V134.05C151.004 134.165 150.598 134.222 150.112 134.222C149.421 134.222 148.877 133.999 148.48 133.552C148.083 133.106 147.884 132.482 147.884 131.681C147.884 131.181 147.978 130.74 148.167 130.359C148.357 129.978 148.63 129.684 148.984 129.477C149.341 129.269 149.755 129.164 150.226 129.164C150.706 129.164 151.136 129.254 151.515 129.434L151.377 129.743C151.018 129.564 150.641 129.474 150.246 129.474Z" fill="white"/>
    <path d="M143.506 130.426C143.771 130.426 144 130.474 144.193 130.571C144.386 130.667 144.558 130.832 144.711 131.065H144.731C144.718 130.783 144.711 130.506 144.711 130.234V128.919H145.041V134.154H144.822L144.738 133.596H144.711C144.433 134.013 144.033 134.222 143.513 134.222C143.008 134.222 142.622 134.065 142.355 133.751C142.088 133.437 141.955 132.979 141.955 132.378C141.955 131.745 142.087 131.262 142.352 130.927C142.617 130.593 143.001 130.426 143.506 130.426ZM143.506 130.729C143.107 130.729 142.806 130.869 142.604 131.149C142.405 131.43 142.305 131.837 142.305 132.371C142.305 133.407 142.708 133.926 143.513 133.926C143.926 133.926 144.229 133.806 144.421 133.566C144.614 133.325 144.711 132.93 144.711 132.378V132.32C144.711 131.755 144.616 131.349 144.425 131.102C144.236 130.853 143.93 130.729 143.506 130.729Z" fill="white"/>
    <path d="M140.653 134.154V131.782C140.653 131.414 140.575 131.147 140.421 130.981C140.266 130.813 140.026 130.729 139.701 130.729C139.263 130.729 138.942 130.84 138.738 131.062C138.536 131.282 138.435 131.64 138.435 132.135V134.154H138.102V130.497H138.385L138.449 130.998H138.469C138.707 130.617 139.13 130.426 139.738 130.426C140.568 130.426 140.983 130.871 140.983 131.762V134.154H140.653Z" fill="white"/>
    <path d="M136.416 132.418H134.418L133.731 134.154H133.351L135.329 129.214H135.548L137.486 134.154H137.099L136.416 132.418ZM134.542 132.108H136.302L135.632 130.335C135.576 130.196 135.509 130.003 135.43 129.756C135.37 129.971 135.304 130.167 135.232 130.342L134.542 132.108Z" fill="white"/>
    <path d="M131.419 130.497V130.729L130.662 130.776C130.864 131.027 130.965 131.303 130.965 131.604C130.965 131.956 130.847 132.242 130.612 132.462C130.378 132.679 130.064 132.788 129.67 132.788C129.504 132.788 129.387 132.781 129.32 132.768C129.187 132.838 129.086 132.919 129.017 133.014C128.947 133.108 128.912 133.208 128.912 133.313C128.912 133.43 128.956 133.515 129.044 133.569C129.133 133.623 129.283 133.65 129.491 133.65H130.131C130.528 133.65 130.832 133.73 131.042 133.892C131.253 134.051 131.359 134.288 131.359 134.602C131.359 134.988 131.202 135.285 130.888 135.494C130.576 135.704 130.131 135.81 129.552 135.81C129.092 135.81 128.735 135.721 128.482 135.544C128.23 135.367 128.105 135.12 128.105 134.804C128.105 134.553 128.182 134.344 128.337 134.178C128.494 134.012 128.706 133.899 128.973 133.838C128.863 133.791 128.774 133.725 128.707 133.639C128.642 133.552 128.61 133.452 128.61 133.34C128.61 133.095 128.766 132.88 129.077 132.694C128.864 132.606 128.698 132.47 128.579 132.283C128.46 132.095 128.401 131.88 128.401 131.637C128.401 131.272 128.517 130.979 128.748 130.759C128.981 130.537 129.295 130.426 129.69 130.426C129.93 130.426 130.116 130.45 130.248 130.497H131.419ZM128.458 134.773C128.458 135.276 128.832 135.527 129.579 135.527C130.539 135.527 131.019 135.221 131.019 134.609C131.019 134.389 130.944 134.229 130.793 134.131C130.643 134.032 130.4 133.983 130.063 133.983H129.464C128.794 133.983 128.458 134.246 128.458 134.773ZM128.737 131.637C128.737 131.92 128.823 132.14 128.993 132.297C129.166 132.452 129.396 132.529 129.683 132.529C129.988 132.529 130.221 132.452 130.383 132.297C130.547 132.142 130.629 131.918 130.629 131.624C130.629 131.312 130.544 131.079 130.376 130.924C130.21 130.767 129.977 130.688 129.676 130.688C129.385 130.688 129.155 130.773 128.986 130.941C128.82 131.107 128.737 131.339 128.737 131.637Z" fill="white"/>
    <path d="M127.052 134.154V131.782C127.052 131.414 126.974 131.147 126.82 130.981C126.665 130.813 126.425 130.729 126.099 130.729C125.662 130.729 125.341 130.84 125.137 131.062C124.935 131.282 124.834 131.64 124.834 132.135V134.154H124.501V130.497H124.784L124.848 130.998H124.868C125.106 130.617 125.529 130.426 126.136 130.426C126.966 130.426 127.381 130.871 127.381 131.762V134.154H127.052Z" fill="white"/>
    <path d="M123.273 134.154H122.94V130.497H123.273V134.154ZM122.893 129.481C122.893 129.265 122.963 129.158 123.105 129.158C123.174 129.158 123.228 129.186 123.266 129.242C123.306 129.298 123.327 129.377 123.327 129.481C123.327 129.582 123.306 129.661 123.266 129.719C123.228 129.778 123.174 129.807 123.105 129.807C122.963 129.807 122.893 129.698 122.893 129.481Z" fill="white"/>
    <path d="M119.928 132.549L121.796 130.497H122.199L120.759 132.058L122.324 134.154H121.924L120.534 132.307L119.935 132.852V134.154H119.602V128.919H119.935V131.543L119.911 132.549H119.928Z" fill="white"/>
    <path d="M118.589 132.32C118.589 132.917 118.444 133.384 118.155 133.72C117.865 134.054 117.466 134.222 116.957 134.222C116.636 134.222 116.353 134.144 116.109 133.989C115.864 133.835 115.677 133.613 115.547 133.323C115.417 133.034 115.352 132.7 115.352 132.32C115.352 131.724 115.496 131.259 115.786 130.927C116.075 130.593 116.472 130.426 116.977 130.426C117.479 130.426 117.873 130.595 118.158 130.934C118.445 131.271 118.589 131.733 118.589 132.32ZM115.702 132.32C115.702 132.823 115.812 133.216 116.031 133.498C116.253 133.779 116.566 133.919 116.97 133.919C117.374 133.919 117.686 133.779 117.906 133.498C118.128 133.216 118.239 132.823 118.239 132.32C118.239 131.816 118.127 131.424 117.902 131.146C117.68 130.868 117.367 130.729 116.963 130.729C116.56 130.729 116.248 130.868 116.028 131.146C115.81 131.422 115.702 131.813 115.702 132.32Z" fill="white"/>
    <path d="M114.551 132.32C114.551 132.917 114.406 133.384 114.117 133.72C113.827 134.054 113.428 134.222 112.919 134.222C112.598 134.222 112.315 134.144 112.071 133.989C111.826 133.835 111.639 133.613 111.509 133.323C111.379 133.034 111.314 132.7 111.314 132.32C111.314 131.724 111.459 131.259 111.748 130.927C112.037 130.593 112.434 130.426 112.939 130.426C113.442 130.426 113.835 130.595 114.12 130.934C114.407 131.271 114.551 131.733 114.551 132.32ZM111.664 132.32C111.664 132.823 111.774 133.216 111.994 133.498C112.216 133.779 112.529 133.919 112.932 133.919C113.336 133.919 113.648 133.779 113.868 133.498C114.09 133.216 114.201 132.823 114.201 132.32C114.201 131.816 114.089 131.424 113.864 131.146C113.642 130.868 113.329 130.729 112.926 130.729C112.522 130.729 112.21 130.868 111.99 131.146C111.773 131.422 111.664 131.813 111.664 132.32Z" fill="white"/>
    <path d="M107.289 129.235H108.639C109.247 129.235 109.693 129.338 109.978 129.544C110.263 129.751 110.405 130.063 110.405 130.48C110.405 130.765 110.318 131.003 110.143 131.193C109.97 131.382 109.717 131.503 109.382 131.557V131.577C109.775 131.635 110.063 131.76 110.247 131.95C110.433 132.139 110.526 132.402 110.526 132.741C110.526 133.194 110.376 133.543 110.075 133.788C109.775 134.032 109.349 134.154 108.797 134.154H107.289V129.235ZM107.633 131.425H108.716C109.178 131.425 109.514 131.349 109.722 131.197C109.933 131.042 110.038 130.801 110.038 130.473C110.038 130.146 109.92 129.908 109.682 129.76C109.446 129.612 109.094 129.538 108.625 129.538H107.633V131.425ZM107.633 131.728V133.852H108.79C109.701 133.852 110.156 133.481 110.156 132.741C110.156 132.066 109.676 131.728 108.716 131.728H107.633Z" fill="white"/>
    <path d="M104.17 130.426C104.325 130.426 104.491 130.442 104.668 130.473L104.604 130.793C104.452 130.755 104.293 130.736 104.13 130.736C103.818 130.736 103.562 130.868 103.362 131.133C103.163 131.397 103.063 131.732 103.063 132.135V134.154H102.73V130.497H103.013L103.046 131.156H103.07C103.22 130.887 103.38 130.699 103.551 130.591C103.721 130.481 103.928 130.426 104.17 130.426Z" fill="white"/>
    <path d="M101.717 132.32C101.717 132.917 101.572 133.384 101.283 133.72C100.993 134.054 100.594 134.222 100.085 134.222C99.7641 134.222 99.4815 134.144 99.237 133.989C98.9925 133.835 98.8051 133.613 98.675 133.323C98.5449 133.034 98.4799 132.7 98.4799 132.32C98.4799 131.724 98.6245 131.259 98.9139 130.927C99.2033 130.593 99.6004 130.426 100.105 130.426C100.608 130.426 101.001 130.595 101.286 130.934C101.573 131.271 101.717 131.733 101.717 132.32ZM98.8298 132.32C98.8298 132.823 98.9397 133.216 99.1596 133.498C99.3817 133.779 99.6946 133.919 100.098 133.919C100.502 133.919 100.814 133.779 101.034 133.498C101.256 133.216 101.367 132.823 101.367 132.32C101.367 131.816 101.255 131.424 101.03 131.146C100.808 130.868 100.495 130.729 100.092 130.729C99.6879 130.729 99.3761 130.868 99.1562 131.146C98.9386 131.422 98.8298 131.813 98.8298 132.32Z" fill="white"/>
    <path d="M95.6601 134.154H95.3169V129.235H98.0122V129.551H95.6601V131.637H97.881V131.957H95.6601V134.154Z" fill="white"/>
    <path d="M92.1 133.925C92.3109 133.925 92.4948 133.907 92.6518 133.872V134.141C92.4903 134.195 92.3041 134.222 92.0933 134.222C91.7702 134.222 91.5313 134.135 91.3765 133.962C91.224 133.79 91.1477 133.518 91.1477 133.148V130.786H90.606V130.591L91.1477 130.439L91.316 129.612H91.4876V130.497H92.561V130.786H91.4876V133.101C91.4876 133.381 91.5369 133.589 91.6356 133.724C91.7343 133.858 91.8891 133.925 92.1 133.925Z" fill="white"/>
    <path d="M88.8292 134.222C88.2976 134.222 87.8825 134.058 87.5842 133.73C87.2881 133.403 87.14 132.944 87.14 132.354C87.14 131.771 87.2836 131.304 87.5707 130.954C87.8579 130.602 88.2448 130.426 88.7316 130.426C89.1623 130.426 89.5022 130.576 89.7512 130.877C90.0002 131.177 90.1247 131.586 90.1247 132.102V132.371H87.49C87.4945 132.873 87.6111 133.257 87.8399 133.522C88.071 133.786 88.4007 133.919 88.8292 133.919C89.0378 133.919 89.2207 133.904 89.3777 133.875C89.537 133.846 89.7378 133.783 89.98 133.687V133.989C89.7736 134.079 89.583 134.14 89.408 134.171C89.233 134.205 89.0401 134.222 88.8292 134.222ZM88.7316 130.722C88.3794 130.722 88.0968 130.839 87.8837 131.072C87.6706 131.303 87.5461 131.637 87.5102 132.075H89.7714C89.7714 131.651 89.6794 131.32 89.4955 131.082C89.3115 130.842 89.0569 130.722 88.7316 130.722Z" fill="white"/>
    <path d="M86.1238 134.154H85.7906V128.919H86.1238V134.154Z" fill="white"/>
    <path d="M84.5625 134.154H84.2294V128.919H84.5625V134.154Z" fill="white"/>
    <path d="M82.7959 134.154L82.7118 133.576H82.6848C82.5009 133.811 82.3113 133.978 82.1162 134.077C81.9232 134.173 81.6944 134.222 81.4297 134.222C81.0708 134.222 80.7915 134.13 80.5918 133.946C80.3922 133.762 80.2924 133.507 80.2924 133.182C80.2924 132.825 80.4404 132.548 80.7365 132.351C81.0349 132.153 81.4656 132.049 82.0287 132.038L82.7252 132.018V131.775C82.7252 131.428 82.6546 131.165 82.5132 130.988C82.3719 130.811 82.1442 130.722 81.8301 130.722C81.4914 130.722 81.1403 130.816 80.7769 131.005L80.6524 130.715C81.054 130.527 81.451 130.433 81.8436 130.433C82.2452 130.433 82.5446 130.537 82.742 130.746C82.9417 130.954 83.0415 131.28 83.0415 131.722V134.154H82.7959ZM81.4499 133.919C81.8402 133.919 82.1476 133.808 82.3719 133.586C82.5985 133.361 82.7118 133.051 82.7118 132.654V132.294L82.0724 132.321C81.5587 132.345 81.1919 132.426 80.9721 132.563C80.7545 132.697 80.6457 132.908 80.6457 133.195C80.6457 133.424 80.7152 133.603 80.8543 133.73C80.9956 133.856 81.1942 133.919 81.4499 133.919Z" fill="white"/>
    <path d="M78.4282 134.154H78.1456L77.0654 130.359C76.9757 130.047 76.9084 129.791 76.8635 129.592C76.8277 129.787 76.7761 130.011 76.7088 130.265C76.6437 130.518 76.2825 131.815 75.6252 134.154H75.3359L73.9832 129.235H74.3432L75.2046 132.405C75.2383 132.533 75.2697 132.651 75.2988 132.761C75.328 132.869 75.3538 132.971 75.3762 133.068C75.4009 133.162 75.4222 133.254 75.4402 133.343C75.4604 133.431 75.4783 133.52 75.494 133.609C75.5479 133.304 75.6623 132.841 75.8372 132.22L76.6785 129.235H77.0587L78.0446 132.66C78.1591 133.055 78.2409 133.374 78.2903 133.616C78.3195 133.455 78.3565 133.283 78.4013 133.101C78.4484 132.919 78.795 131.631 79.4411 129.235H79.7877L78.4282 134.154Z" fill="white"/>
    <path d="M71.6915 133.202C71.6915 133.53 71.567 133.782 71.318 133.959C71.069 134.134 70.7157 134.222 70.258 134.222C69.769 134.222 69.3809 134.146 69.0938 133.996V133.636C69.4617 133.82 69.8497 133.912 70.258 133.912C70.6192 133.912 70.8929 133.853 71.0791 133.734C71.2675 133.613 71.3617 133.452 71.3617 133.253C71.3617 133.069 71.2866 132.914 71.1363 132.788C70.9882 132.663 70.7437 132.539 70.4027 132.418C70.0371 132.286 69.7802 132.172 69.6321 132.078C69.4841 131.982 69.3719 131.874 69.2956 131.755C69.2216 131.634 69.1846 131.487 69.1846 131.314C69.1846 131.041 69.299 130.824 69.5278 130.665C69.7589 130.506 70.0808 130.426 70.4936 130.426C70.8884 130.426 71.263 130.5 71.6175 130.648L71.493 130.951C71.134 130.803 70.8009 130.729 70.4936 130.729C70.1952 130.729 69.9585 130.778 69.7836 130.877C69.6086 130.976 69.5211 131.112 69.5211 131.287C69.5211 131.478 69.5884 131.631 69.723 131.745C69.8598 131.859 70.1257 131.987 70.5205 132.129C70.8503 132.248 71.0903 132.355 71.2406 132.452C71.3909 132.546 71.5031 132.654 71.5771 132.775C71.6534 132.896 71.6915 133.038 71.6915 133.202Z" fill="white"/>
    <path d="M68.1954 134.154H67.8623V130.497H68.1954V134.154ZM67.8152 129.481C67.8152 129.265 67.8858 129.158 68.0272 129.158C68.0967 129.158 68.1506 129.186 68.1887 129.242C68.2291 129.298 68.2493 129.377 68.2493 129.481C68.2493 129.582 68.2291 129.661 68.1887 129.719C68.1506 129.778 68.0967 129.807 68.0272 129.807C67.8858 129.807 67.8152 129.698 67.8152 129.481Z" fill="white"/>
    <path d="M66.348 134.154V131.782C66.348 131.414 66.2706 131.147 66.1158 130.981C65.961 130.813 65.721 130.729 65.3957 130.729C64.9583 130.729 64.6375 130.84 64.4333 131.062C64.2314 131.282 64.1305 131.64 64.1305 132.135V134.154H63.7974V128.919H64.1305V130.584L64.1137 131.052H64.1372C64.2741 130.832 64.4468 130.673 64.6554 130.574C64.8641 130.475 65.1232 130.426 65.4327 130.426C66.2627 130.426 66.6778 130.871 66.6778 131.762V134.154H66.348Z" fill="white"/>
    <path d="M61.5496 134.154H61.203V129.558H59.6046V129.235H63.1479V129.558H61.5496V134.154Z" fill="white"/>
    <path d="M55.6273 130.426C55.892 130.426 56.1208 130.474 56.3137 130.571C56.5067 130.667 56.6794 130.832 56.8319 131.065H56.8521C56.8387 130.783 56.8319 130.506 56.8319 130.234V128.919H57.1617V134.154H56.943L56.8589 133.596H56.8319C56.5538 134.013 56.1545 134.222 55.634 134.222C55.1293 134.222 54.7434 134.065 54.4765 133.751C54.2095 133.437 54.076 132.979 54.076 132.378C54.076 131.745 54.2084 131.262 54.4731 130.927C54.7378 130.593 55.1225 130.426 55.6273 130.426ZM55.6273 130.729C55.228 130.729 54.9274 130.869 54.7255 131.149C54.5258 131.43 54.426 131.837 54.426 132.371C54.426 133.407 54.8287 133.926 55.634 133.926C56.0468 133.926 56.3496 133.806 56.5426 133.566C56.7355 133.325 56.8319 132.93 56.8319 132.378V132.32C56.8319 131.755 56.7366 131.349 56.5459 131.102C56.3575 130.853 56.0513 130.729 55.6273 130.729Z" fill="white"/>
    <path d="M51.9831 134.222C51.4515 134.222 51.0365 134.058 50.7381 133.73C50.442 133.403 50.2939 132.944 50.2939 132.354C50.2939 131.771 50.4375 131.304 50.7247 130.954C51.0118 130.602 51.3988 130.426 51.8856 130.426C52.3163 130.426 52.6561 130.576 52.9051 130.877C53.1542 131.177 53.2787 131.586 53.2787 132.102V132.371H50.6439C50.6484 132.873 50.765 133.257 50.9939 133.522C51.2249 133.786 51.5547 133.919 51.9831 133.919C52.1918 133.919 52.3746 133.904 52.5316 133.875C52.6909 133.846 52.8917 133.783 53.134 133.687V133.989C52.9276 134.079 52.7369 134.14 52.5619 134.171C52.3869 134.205 52.194 134.222 51.9831 134.222ZM51.8856 130.722C51.5334 130.722 51.2507 130.839 51.0376 131.072C50.8245 131.303 50.7 131.637 50.6641 132.075H52.9253C52.9253 131.651 52.8334 131.32 52.6494 131.082C52.4655 130.842 52.2108 130.722 51.8856 130.722Z" fill="white"/>
    <path d="M49.5637 133.202C49.5637 133.53 49.4392 133.782 49.1902 133.959C48.9412 134.134 48.5878 134.222 48.1302 134.222C47.6412 134.222 47.2531 134.146 46.9659 133.996V133.636C47.3338 133.82 47.7219 133.912 48.1302 133.912C48.4914 133.912 48.7651 133.853 48.9513 133.734C49.1397 133.613 49.2339 133.452 49.2339 133.253C49.2339 133.069 49.1588 132.914 49.0085 132.788C48.8604 132.663 48.6159 132.539 48.2749 132.418C47.9092 132.286 47.6524 132.172 47.5043 132.078C47.3563 131.982 47.2441 131.874 47.1678 131.755C47.0938 131.634 47.0568 131.487 47.0568 131.314C47.0568 131.041 47.1712 130.824 47.4 130.665C47.6311 130.506 47.953 130.426 48.3658 130.426C48.7606 130.426 49.1352 130.5 49.4897 130.648L49.3651 130.951C49.0062 130.803 48.6731 130.729 48.3658 130.729C48.0674 130.729 47.8307 130.778 47.6558 130.877C47.4808 130.976 47.3933 131.112 47.3933 131.287C47.3933 131.478 47.4606 131.631 47.5952 131.745C47.732 131.859 47.9979 131.987 48.3927 132.129C48.7224 132.248 48.9625 132.355 49.1128 132.452C49.2631 132.546 49.3752 132.654 49.4493 132.775C49.5255 132.896 49.5637 133.038 49.5637 133.202Z" fill="white"/>
    <path d="M46.0372 129.235V132.418C46.0372 132.983 45.8734 133.425 45.5459 133.744C45.2184 134.062 44.7619 134.222 44.1764 134.222C43.6066 134.222 43.1613 134.062 42.8405 133.744C42.5219 133.423 42.3627 132.977 42.3627 132.405V129.235H42.7093V132.418C42.7093 132.891 42.8405 133.26 43.103 133.525C43.3654 133.788 43.7367 133.919 44.2168 133.919C44.6856 133.919 45.049 133.79 45.307 133.532C45.565 133.272 45.694 132.912 45.694 132.452V129.235H46.0372Z" fill="white"/>
    <path d="M39.0313 134.154V131.782C39.0313 131.414 38.9539 131.147 38.7992 130.981C38.6444 130.813 38.4043 130.729 38.0791 130.729C37.6416 130.729 37.3208 130.84 37.1167 131.062C36.9148 131.282 36.8138 131.64 36.8138 132.135V134.154H36.4807V130.497H36.7634L36.8273 130.998H36.8475C37.0853 130.617 37.5081 130.426 38.1161 130.426C38.9461 130.426 39.3611 130.871 39.3611 131.762V134.154H39.0313Z" fill="white"/>
    <path d="M35.0473 134.154L34.9632 133.576H34.9363C34.7524 133.811 34.5628 133.978 34.3676 134.077C34.1747 134.173 33.9459 134.222 33.6812 134.222C33.3222 134.222 33.043 134.13 32.8433 133.946C32.6437 133.762 32.5438 133.507 32.5438 133.182C32.5438 132.825 32.6919 132.548 32.988 132.351C33.2864 132.153 33.7171 132.049 34.2801 132.038L34.9767 132.018V131.775C34.9767 131.428 34.906 131.165 34.7647 130.988C34.6234 130.811 34.3957 130.722 34.0816 130.722C33.7429 130.722 33.3918 130.816 33.0284 131.005L32.9039 130.715C33.3054 130.527 33.7025 130.433 34.0951 130.433C34.4966 130.433 34.7961 130.537 34.9935 130.746C35.1932 130.954 35.293 131.28 35.293 131.722V134.154H35.0473ZM33.7014 133.919C34.0917 133.919 34.399 133.808 34.6234 133.586C34.8499 133.361 34.9632 133.051 34.9632 132.654V132.294L34.3239 132.321C33.8102 132.345 33.4434 132.426 33.2235 132.563C33.0059 132.697 32.8971 132.908 32.8971 133.195C32.8971 133.424 32.9667 133.603 33.1058 133.73C33.2471 133.856 33.4456 133.919 33.7014 133.919Z" fill="white"/>
    <path d="M30.7301 129.474C30.1132 129.474 29.6275 129.671 29.2731 130.066C28.9186 130.461 28.7414 131.002 28.7414 131.688C28.7414 132.39 28.9086 132.935 29.2428 133.323C29.5771 133.712 30.0549 133.906 30.6763 133.906C31.089 133.906 31.4682 133.853 31.8136 133.747V134.05C31.4883 134.165 31.0823 134.222 30.5955 134.222C29.9046 134.222 29.3606 133.999 28.9635 133.552C28.5665 133.106 28.3679 132.482 28.3679 131.681C28.3679 131.181 28.4621 130.74 28.6506 130.359C28.8413 129.978 29.1138 129.684 29.4683 129.477C29.8249 129.269 30.2388 129.164 30.7099 129.164C31.19 129.164 31.6196 129.254 31.9987 129.434L31.8607 129.743C31.5018 129.564 31.1249 129.474 30.7301 129.474Z" fill="white"/>
    <path d="M22.9806 130.497V132.866C22.9806 133.234 23.058 133.502 23.2128 133.67C23.3676 133.836 23.6076 133.919 23.9329 133.919C24.3681 133.919 24.6878 133.809 24.8919 133.589C25.0983 133.369 25.2015 133.011 25.2015 132.516V130.497H25.5313V134.154H25.2486L25.188 133.65H25.1679C24.9301 134.031 24.5072 134.222 23.8993 134.222C23.067 134.222 22.6509 133.776 22.6509 132.886V130.497H22.9806Z" fill="white"/>
    <path d="M21.6784 132.32C21.6784 132.917 21.5337 133.384 21.2443 133.72C20.9549 134.054 20.5556 134.222 20.0464 134.222C19.7256 134.222 19.4429 134.144 19.1984 133.989C18.9539 133.835 18.7666 133.613 18.6365 133.323C18.5063 133.034 18.4413 132.7 18.4413 132.32C18.4413 131.724 18.586 131.259 18.8754 130.927C19.1647 130.593 19.5618 130.426 20.0666 130.426C20.5691 130.426 20.9628 130.595 21.2476 130.934C21.5348 131.271 21.6784 131.733 21.6784 132.32ZM18.7912 132.32C18.7912 132.823 18.9012 133.216 19.121 133.498C19.3431 133.779 19.656 133.919 20.0598 133.919C20.4636 133.919 20.7754 133.779 20.9953 133.498C21.2174 133.216 21.3284 132.823 21.3284 132.32C21.3284 131.816 21.2162 131.424 20.9919 131.146C20.7698 130.868 20.4569 130.729 20.0531 130.729C19.6493 130.729 19.3375 130.868 19.1176 131.146C18.9 131.422 18.7912 131.813 18.7912 132.32Z" fill="white"/>
    <path d="M16.2272 131.927L17.6674 129.235H18.0375L16.3988 132.253V134.154H16.0455V132.28L14.4 129.235H14.7937L16.2272 131.927Z" fill="white"/>
    <path d="M100.612 114.888C91.8869 121.388 81.4012 123.479 70.9905 120.248C64.4744 118.233 54.5506 114.507 49.3826 120.932C50.2814 116.598 51.667 112.417 53.4645 108.463C56.7226 103.483 59.9432 98.5033 63.2012 93.5614C63.4259 93.2193 62.9016 92.8011 62.6395 93.1052C58.5576 97.667 55.2246 102.761 52.7156 108.311C51.2176 110.592 49.7197 112.911 48.2217 115.192C48.6711 113.823 49.0831 112.455 49.5324 111.086C49.6448 110.744 49.158 110.44 48.9333 110.744C47.0608 113.139 45.1884 115.534 43.3534 117.929C43.2411 117.283 43.0913 116.636 42.9789 115.99C42.9415 115.762 42.6793 115.686 42.4921 115.8C40.0954 116.978 37.6987 118.157 35.302 119.373C36.4254 116.332 33.0925 113.367 30.0966 113.329C28.6361 113.329 27.3628 113.747 26.1645 114.431C26.4641 113.253 26.7637 112.075 27.0633 110.934C29.1229 107.589 30.2089 103.635 30.134 99.6818C30.134 99.3776 29.6847 99.3016 29.6098 99.6057C28.5612 103.369 27.4752 107.133 26.4266 110.934C24.6665 113.709 22.1949 116.028 19.3114 117.777C19.1616 117.853 19.3114 118.043 19.4237 117.967C22.0451 116.712 24.2546 114.85 25.9772 112.569C25.79 113.215 25.6028 113.861 25.453 114.507C25.4155 114.698 25.3406 114.85 25.3032 115.04C21.9328 117.397 19.199 121.502 15.192 122.415C15.0048 122.453 14.9299 122.757 15.0797 122.871C18.7122 125.722 22.7941 122.681 24.5542 119.221C25.1534 118.005 25.6028 116.712 25.9772 115.382C27.4377 114.469 29.048 113.861 30.8081 113.899C33.5793 113.937 36.0135 117.473 34.3657 119.944C34.1785 120.248 34.553 120.514 34.8151 120.4C37.3616 119.145 39.9081 117.891 42.4921 116.636C42.6419 117.397 42.7542 118.119 42.904 118.879C42.9415 119.145 43.316 119.221 43.5032 119.031C45.1135 116.978 46.7238 114.888 48.3341 112.835C47.8098 114.431 47.323 116.028 46.7987 117.587C46.6489 118.005 47.2481 118.233 47.4728 117.891C48.746 115.914 50.0193 113.975 51.33 111.999C50.0193 115.458 49.0456 119.031 48.409 122.719C48.3341 123.137 48.8958 123.441 49.1205 123.023C51.4798 118.651 56.7226 117.625 61.2164 118.271C66.3843 118.993 71.1029 121.54 76.2333 122.377C84.884 123.783 94.3959 121.198 100.987 115.306C101.062 115.078 100.8 114.736 100.612 114.888ZM29.4225 101.963C29.1978 104.282 28.5986 106.486 27.625 108.539C28.2242 106.334 28.8233 104.167 29.4225 101.963ZM22.4945 120.97C20.9217 123.023 18.0007 123.935 15.7538 122.681C19.0118 121.616 21.2962 119.031 23.8427 116.826C24.1797 116.522 24.5167 116.256 24.8912 115.99C24.3295 117.739 23.6554 119.487 22.4945 120.97Z" fill="black"/>
    <path d="M172.062 162.726V151.779H175.647C176.783 151.779 177.768 152.009 178.6 152.47C179.443 152.92 180.094 153.557 180.555 154.38C181.015 155.203 181.245 156.158 181.245 157.245C181.245 158.323 181.015 159.278 180.555 160.11C180.094 160.933 179.443 161.575 178.6 162.035C177.768 162.496 176.783 162.726 175.647 162.726H172.062ZM173.796 161.183H175.676C176.45 161.183 177.121 161.021 177.689 160.698C178.267 160.375 178.713 159.919 179.027 159.332C179.34 158.744 179.497 158.048 179.497 157.245C179.497 156.442 179.335 155.751 179.012 155.173C178.698 154.586 178.258 154.13 177.689 153.807C177.121 153.484 176.45 153.322 175.676 153.322H173.796V161.183Z" fill="white"/>
    <path d="M162.448 162.726V151.779H166.43C167.164 151.779 167.811 151.916 168.369 152.19C168.928 152.455 169.363 152.847 169.677 153.366C170 153.875 170.162 154.488 170.162 155.203C170.162 155.957 169.971 156.604 169.589 157.142C169.216 157.681 168.712 158.073 168.075 158.318L170.603 162.726H168.634L165.945 157.95L167.076 158.612H164.181V162.726H162.448ZM164.181 157.069H166.459C166.861 157.069 167.208 156.99 167.502 156.834C167.796 156.677 168.021 156.461 168.178 156.187C168.345 155.903 168.428 155.57 168.428 155.188C168.428 154.806 168.345 154.478 168.178 154.204C168.021 153.919 167.796 153.704 167.502 153.557C167.208 153.4 166.861 153.322 166.459 153.322H164.181V157.069Z" fill="white"/>
    <path d="M151.304 162.726L155.154 151.779H157.299L161.149 162.726H159.297L158.46 160.272H154.008L153.155 162.726H151.304ZM154.507 158.729H157.931L155.991 152.999H156.476L154.507 158.729Z" fill="white"/>
    <path d="M145.95 162.902C145.176 162.902 144.456 162.76 143.79 162.476C143.134 162.192 142.561 161.8 142.071 161.3C141.591 160.791 141.214 160.193 140.94 159.508C140.665 158.822 140.528 158.068 140.528 157.245C140.528 156.432 140.661 155.682 140.925 154.997C141.199 154.301 141.581 153.704 142.071 153.204C142.561 152.695 143.134 152.303 143.79 152.028C144.447 151.744 145.167 151.602 145.95 151.602C146.724 151.602 147.415 151.735 148.022 151.999C148.639 152.264 149.158 152.611 149.58 153.042C150.001 153.464 150.305 153.924 150.491 154.424L148.933 155.158C148.698 154.57 148.321 154.095 147.802 153.733C147.292 153.361 146.675 153.175 145.95 153.175C145.225 153.175 144.584 153.346 144.025 153.689C143.467 154.032 143.031 154.507 142.718 155.114C142.414 155.721 142.262 156.432 142.262 157.245C142.262 158.058 142.414 158.773 142.718 159.39C143.031 159.997 143.467 160.472 144.025 160.815C144.584 161.148 145.225 161.315 145.95 161.315C146.675 161.315 147.292 161.134 147.802 160.771C148.321 160.409 148.698 159.934 148.933 159.346L150.491 160.081C150.305 160.57 150.001 161.031 149.58 161.462C149.158 161.893 148.639 162.241 148.022 162.505C147.415 162.77 146.724 162.902 145.95 162.902Z" fill="white"/>
    <path d="M31.1512 162.726V157.789L27.4043 151.779H29.3586L32.3561 156.643H31.6655L34.6484 151.779H36.6026L32.8704 157.789V162.726H31.1512Z" fill="white"/>
    <path d="M15.5314 162.726V151.779H17.1477L21.262 157.48H20.4538L24.4946 151.779H26.1109V162.726H24.3918V153.821L25.0383 153.998L20.9093 159.64H20.733L16.6922 153.998L17.2652 153.821V162.726H15.5314Z" fill="white"/>
    <path d="M309.928 116.275C309.928 119.444 307.769 122.061 305.106 122.061H272.088C269.424 122.061 267.266 119.444 267.266 116.275V88.0788C267.266 84.9102 269.424 82.2926 272.088 82.2926H305.106C307.769 82.2926 309.928 84.9102 309.928 88.0788V116.275Z" fill="#5F3813"/>
    <path d="M309.331 115.632C309.331 118.801 307.172 121.372 304.555 121.418H271.858C269.241 121.418 267.083 118.847 267.083 115.678V87.6656C267.083 84.497 269.241 81.8795 271.858 81.8795H304.555C307.172 81.8795 309.331 84.4511 309.331 87.6197V115.632Z" fill="url(#paint0_linear_41_505)"/>
    <path d="M294.222 96.4827C294.222 96.6204 294.176 96.8041 294.131 96.9878C294.039 97.5848 293.947 97.9981 293.855 98.2277C293.809 98.3655 293.763 98.4114 293.763 98.4573C293.763 98.5032 293.717 98.5032 293.717 98.5032C293.074 99.3758 292.799 100.478 292.799 101.626C292.799 102.728 293.12 103.876 293.717 104.749C293.717 104.749 293.717 104.749 293.763 104.84C293.901 105.116 294.176 105.943 294.176 107.825C294.176 111.361 292.11 114.254 289.401 114.943L289.171 114.989V121.372H289.722V115.54C289.952 115.494 290.135 115.403 290.319 115.311H309.239V114.622H291.513C293.442 113.244 294.728 110.673 294.728 107.779C294.728 107.366 294.728 107.045 294.682 106.723H309.239V106.034H294.59C294.406 104.749 294.085 104.289 294.085 104.243C293.579 103.509 293.304 102.544 293.304 101.58C293.304 100.616 293.579 99.6513 294.085 98.9165C294.131 98.8706 294.452 98.3655 294.59 97.1256H309.239V96.4367H294.314L294.222 96.4827ZM290.457 87.9412C290.227 87.8493 290.043 87.7575 289.814 87.7116V81.8795H289.263V88.2626L289.492 88.3085C289.814 88.4004 290.043 88.4463 290.365 88.5841H290.411C290.411 88.5841 290.411 88.5841 290.457 88.5841H309.423V87.8952L290.457 87.9412ZM286.691 87.7116C286.462 87.7575 286.278 87.8493 286.094 87.9412H267.174V88.63H284.9C282.971 90.0077 281.686 92.5793 281.686 95.4724C281.686 95.8857 281.686 96.2071 281.732 96.5286H267.174V97.2174H281.823C282.007 98.5032 282.329 98.9624 282.329 99.0084C282.834 99.7431 283.109 100.707 283.109 101.672C283.109 102.636 282.834 103.601 282.329 104.335C282.283 104.381 281.961 104.886 281.823 106.126H267.174V106.815H281.732C281.732 107.137 281.686 107.504 281.686 107.871C281.686 110.764 282.971 113.336 284.9 114.714H267.174V115.403H286.048C286.278 115.494 286.462 115.586 286.691 115.632V121.464H287.242V115.081L287.013 115.035C284.257 114.346 282.237 111.407 282.237 107.917C282.237 106.677 282.375 105.851 282.512 105.392C282.558 105.162 282.65 104.978 282.696 104.886C282.742 104.795 282.742 104.795 282.742 104.795C283.385 103.922 283.66 102.82 283.66 101.672C283.66 100.57 283.339 99.4217 282.742 98.5491C282.742 98.5491 282.742 98.5492 282.696 98.4573C282.558 98.1818 282.283 97.3552 282.283 95.4724C282.283 92.3497 283.936 89.6403 286.232 88.63H286.278C286.553 88.5382 286.829 88.4004 287.104 88.3545L287.334 88.3085V81.9254H286.783L286.691 87.7116Z" fill="#939393"/>
    <path d="M287.242 88.2625L287.013 88.3084C286.737 88.4002 286.462 88.4921 286.186 88.5839H286.14C283.844 89.5942 282.191 92.2577 282.191 95.4263C282.191 96.9417 282.375 97.7683 282.512 98.1816C282.42 97.6765 282.329 96.9876 282.329 95.9314C282.329 92.8087 283.982 90.1453 286.278 89.0891H286.324C286.599 88.9972 286.829 88.8595 287.105 88.8135L287.334 88.7676V82.3844H289.217V81.8793H287.196L287.242 88.2625ZM282.65 104.84C282.604 104.932 282.558 105.07 282.466 105.345C282.329 105.805 282.191 106.631 282.191 107.871C282.191 108.744 282.329 109.616 282.558 110.397C282.42 109.754 282.329 109.065 282.329 108.376C282.329 107.136 282.466 106.31 282.604 105.851C282.65 105.621 282.742 105.437 282.788 105.345C282.834 105.254 282.834 105.254 282.834 105.254C283.477 104.381 283.752 103.279 283.752 102.131C283.752 101.488 283.66 100.891 283.477 100.294C283.569 100.707 283.614 101.167 283.614 101.58C283.614 102.682 283.293 103.83 282.696 104.703C282.696 104.748 282.696 104.748 282.65 104.84ZM290.365 88.5839C290.365 88.6298 290.365 88.6298 290.365 88.5839H290.319C290.044 88.4462 289.814 88.4002 289.447 88.3084H289.355V88.8135L289.584 88.8595C289.906 88.9513 290.135 88.9972 290.457 89.135H290.503C290.503 89.135 290.503 89.135 290.549 89.135H309.377V88.6298L290.365 88.5839ZM294.177 99.0082C293.671 99.743 293.396 100.707 293.396 101.672C293.396 102.223 293.488 102.774 293.671 103.279C293.58 102.912 293.534 102.59 293.534 102.223C293.534 101.258 293.809 100.294 294.314 99.5593C294.36 99.5134 294.682 99.0082 294.819 97.7683H309.331V97.2632H294.682C294.544 98.4572 294.222 98.9164 294.177 99.0082ZM294.819 107.871C294.819 110.764 293.534 113.336 291.605 114.714H292.386C293.947 113.244 294.957 110.994 294.957 108.422C294.957 108.009 294.957 107.687 294.911 107.366H309.331V106.861H294.773C294.819 107.09 294.819 107.458 294.819 107.871ZM289.952 82.3844H304.739C306.759 82.3844 308.504 83.9458 309.193 86.1041C308.642 83.6703 306.805 81.8334 304.601 81.8334H289.814V87.6655C289.86 87.6655 289.906 87.7114 289.952 87.7114V82.3844ZM287.242 121.418H287.38V115.586L287.242 115.54V121.418ZM286.002 115.356H267.128V115.632C267.128 116.321 267.22 117.01 267.45 117.653C267.358 117.193 267.266 116.688 267.266 116.137V115.862H286.14C286.324 115.953 286.462 115.999 286.645 116.045V115.586C286.462 115.54 286.232 115.448 286.002 115.356ZM284.395 114.714H284.9C283.569 113.749 282.558 112.234 282.053 110.443C282.375 112.142 283.247 113.657 284.395 114.714ZM289.814 115.586V121.418H289.952V116.137C290.181 116.091 290.365 115.999 290.549 115.908H309.331C309.331 115.816 309.331 115.77 309.331 115.678V115.402H290.411C290.227 115.448 289.998 115.54 289.814 115.586ZM267.266 107.32H281.64C281.64 107.136 281.64 106.953 281.686 106.815H267.128V114.714H267.266V107.32ZM272.042 82.4304H286.691V81.8793H271.904C269.287 81.8793 267.128 84.4509 267.128 87.6655V87.941H267.266C267.404 84.8642 269.47 82.4304 272.042 82.4304ZM267.266 89.135H284.211C284.395 88.9513 284.625 88.7676 284.854 88.6298H267.128V96.5284H267.266V89.135ZM267.266 97.7224H281.824C281.778 97.5846 281.778 97.4009 281.732 97.2173H267.083V106.126H267.22L267.266 97.7224Z" fill="#F5F5B9"/>
    <path d="M145.011 19.5928C144.609 19.5928 144.3 19.4757 144.083 19.2416C143.865 19.0075 143.756 18.6731 143.756 18.2383V15.6883H142.929V15.0612H143.138C143.327 15.0612 143.478 14.9999 143.589 14.8773C143.701 14.7491 143.756 14.5902 143.756 14.4007V14.0245H144.383V15.0612H145.37V15.6883H144.383V18.2383C144.383 18.3888 144.406 18.5226 144.45 18.6396C144.495 18.7511 144.57 18.8403 144.676 18.9072C144.788 18.9741 144.935 19.0075 145.119 19.0075C145.164 19.0075 145.217 19.0047 145.278 18.9991C145.339 18.9936 145.392 18.988 145.437 18.9824V19.5426C145.37 19.5593 145.295 19.5705 145.211 19.576C145.128 19.5872 145.061 19.5928 145.011 19.5928Z" fill="white"/>
    <path d="M140.193 19.6427C139.775 19.6427 139.396 19.5423 139.056 19.3417C138.721 19.1355 138.456 18.854 138.261 18.4972C138.066 18.1405 137.969 17.7364 137.969 17.2849C137.969 16.8334 138.064 16.4349 138.253 16.0893C138.443 15.7382 138.699 15.4623 139.022 15.2616C139.351 15.061 139.719 14.9606 140.126 14.9606C140.449 14.9606 140.736 15.0219 140.987 15.1446C141.243 15.2616 141.461 15.4233 141.639 15.6295C141.818 15.8302 141.954 16.0587 142.049 16.3151C142.144 16.5659 142.191 16.8251 142.191 17.0926C142.191 17.1484 142.188 17.2125 142.183 17.2849C142.177 17.3518 142.169 17.4215 142.158 17.494H138.37V16.9087H141.798L141.497 17.1595C141.547 16.853 141.511 16.5798 141.388 16.3402C141.271 16.0949 141.101 15.9026 140.878 15.7633C140.655 15.6183 140.405 15.5459 140.126 15.5459C139.847 15.5459 139.588 15.6183 139.348 15.7633C139.114 15.9082 138.93 16.1116 138.796 16.3736C138.663 16.63 138.61 16.9366 138.638 17.2933C138.61 17.65 138.665 17.9622 138.805 18.2297C138.95 18.4917 139.145 18.6951 139.39 18.84C139.641 18.985 139.908 19.0574 140.193 19.0574C140.522 19.0574 140.797 18.9794 141.02 18.8233C141.243 18.6673 141.425 18.4722 141.564 18.2381L142.099 18.5223C142.01 18.723 141.873 18.9097 141.689 19.0825C141.505 19.2497 141.285 19.3863 141.029 19.4922C140.778 19.5925 140.499 19.6427 140.193 19.6427Z" fill="white"/>
    <path d="M136.242 19.5425V13.2134H136.869V19.5425H136.242Z" fill="white"/>
    <path d="M134.332 19.5425V13.2134H134.959V19.5425H134.332Z" fill="white"/>
    <path d="M130.843 19.6427C130.559 19.6427 130.305 19.5897 130.082 19.4838C129.859 19.3723 129.684 19.2218 129.555 19.0323C129.427 18.8428 129.363 18.6254 129.363 18.3802C129.363 18.1461 129.413 17.9343 129.514 17.7448C129.614 17.5497 129.77 17.3853 129.982 17.2515C130.194 17.1177 130.464 17.023 130.793 16.9672L132.548 16.6746V17.2431L130.943 17.5107C130.62 17.5664 130.386 17.6695 130.241 17.82C130.102 17.9705 130.032 18.1489 130.032 18.3551C130.032 18.5558 130.11 18.7258 130.266 18.8651C130.428 19.0045 130.634 19.0741 130.885 19.0741C131.191 19.0741 131.459 19.01 131.687 18.8818C131.916 18.7481 132.094 18.5697 132.222 18.3468C132.351 18.1238 132.415 17.8758 132.415 17.6026V16.4656C132.415 16.198 132.317 15.9806 132.122 15.8134C131.927 15.6462 131.673 15.5626 131.361 15.5626C131.088 15.5626 130.848 15.6323 130.642 15.7716C130.436 15.9054 130.283 16.081 130.182 16.2984L129.614 15.989C129.697 15.7995 129.828 15.6267 130.007 15.4706C130.191 15.3146 130.4 15.1919 130.634 15.1028C130.868 15.008 131.11 14.9606 131.361 14.9606C131.69 14.9606 131.98 15.0247 132.231 15.1529C132.487 15.2811 132.685 15.4595 132.824 15.688C132.969 15.911 133.042 16.1702 133.042 16.4656V19.5423H132.415V18.6477L132.507 18.7397C132.429 18.9069 132.306 19.0602 132.139 19.1996C131.977 19.3333 131.785 19.442 131.562 19.5256C131.345 19.6037 131.105 19.6427 130.843 19.6427Z" fill="white"/>
    <path d="M122.889 19.5428L121.1 13.314H121.777L123.324 18.8906H123.182L124.77 13.314H125.481L127.061 18.8906H126.91L128.466 13.314H129.143L127.354 19.5428H126.643L125.046 13.941H125.197L123.6 19.5428H122.889Z" fill="white"/>
    <path d="M115.438 19.5423V15.061H116.065V15.9305L115.923 15.897C116.035 15.6072 116.216 15.3787 116.466 15.2115C116.723 15.0442 117.018 14.9606 117.353 14.9606C117.67 14.9606 117.955 15.0331 118.206 15.178C118.462 15.3229 118.663 15.5236 118.808 15.78C118.958 16.0308 119.033 16.3151 119.033 16.6328V19.5423H118.406V16.8753C118.406 16.6021 118.356 16.3708 118.256 16.1813C118.161 15.9918 118.024 15.8469 117.846 15.7465C117.673 15.6406 117.473 15.5877 117.244 15.5877C117.016 15.5877 116.812 15.6406 116.634 15.7465C116.455 15.8469 116.316 15.9946 116.216 16.1897C116.115 16.3792 116.065 16.6077 116.065 16.8753V19.5423H115.438Z" fill="white"/>
    <path d="M112.058 19.6427C111.634 19.6427 111.25 19.5423 110.904 19.3417C110.559 19.1355 110.283 18.8568 110.077 18.5056C109.876 18.1489 109.776 17.7448 109.776 17.2933C109.776 16.8474 109.876 16.4489 110.077 16.0977C110.277 15.7465 110.547 15.4706 110.887 15.27C111.233 15.0637 111.623 14.9606 112.058 14.9606C112.493 14.9606 112.88 15.061 113.22 15.2616C113.566 15.4623 113.836 15.7382 114.031 16.0893C114.232 16.4405 114.332 16.8418 114.332 17.2933C114.332 17.7504 114.229 18.1572 114.023 18.514C113.817 18.8651 113.541 19.141 113.195 19.3417C112.855 19.5423 112.476 19.6427 112.058 19.6427ZM112.058 19.0156C112.359 19.0156 112.629 18.9404 112.869 18.7899C113.114 18.6394 113.307 18.4331 113.446 18.1712C113.591 17.9092 113.663 17.6166 113.663 17.2933C113.663 16.97 113.591 16.6802 113.446 16.4238C113.307 16.1674 113.114 15.9639 112.869 15.8134C112.629 15.6629 112.359 15.5877 112.058 15.5877C111.757 15.5877 111.484 15.6629 111.239 15.8134C110.999 15.9639 110.807 16.1674 110.662 16.4238C110.517 16.6802 110.444 16.97 110.444 17.2933C110.444 17.6166 110.517 17.9092 110.662 18.1712C110.807 18.4331 110.999 18.6394 111.239 18.7899C111.484 18.9404 111.757 19.0156 112.058 19.0156Z" fill="white"/>
    <path d="M108.049 19.5428V15.0614H108.676V19.5428H108.049ZM108.049 14.2337V13.314H108.676V14.2337H108.049Z" fill="white"/>
    <path d="M106.521 19.5928C106.12 19.5928 105.811 19.4757 105.593 19.2416C105.376 19.0075 105.267 18.6731 105.267 18.2383V15.6883H104.44V15.0612H104.649C104.838 15.0612 104.989 14.9999 105.1 14.8773C105.212 14.7491 105.267 14.5902 105.267 14.4007V14.0245H105.894V15.0612H106.881V15.6883H105.894V18.2383C105.894 18.3888 105.917 18.5226 105.961 18.6396C106.006 18.7511 106.081 18.8403 106.187 18.9072C106.298 18.9741 106.446 19.0075 106.63 19.0075C106.675 19.0075 106.728 19.0047 106.789 18.9991C106.85 18.9936 106.903 18.988 106.948 18.9824V19.5426C106.881 19.5593 106.806 19.5705 106.722 19.576C106.638 19.5872 106.572 19.5928 106.521 19.5928Z" fill="white"/>
    <path d="M101.401 19.6427C101.116 19.6427 100.863 19.5897 100.64 19.4838C100.417 19.3723 100.241 19.2218 100.113 19.0323C99.9848 18.8428 99.9207 18.6254 99.9207 18.3802C99.9207 18.1461 99.9708 17.9343 100.071 17.7448C100.171 17.5497 100.328 17.3853 100.539 17.2515C100.751 17.1177 101.021 17.023 101.35 16.9672L103.106 16.6746V17.2431L101.501 17.5107C101.178 17.5664 100.943 17.6695 100.799 17.82C100.659 17.9705 100.59 18.1489 100.59 18.3551C100.59 18.5558 100.668 18.7258 100.824 18.8651C100.985 19.0045 101.191 19.0741 101.442 19.0741C101.749 19.0741 102.016 19.01 102.245 18.8818C102.473 18.7481 102.652 18.5697 102.78 18.3468C102.908 18.1238 102.972 17.8758 102.972 17.6026V16.4656C102.972 16.198 102.875 15.9806 102.68 15.8134C102.485 15.6462 102.231 15.5626 101.919 15.5626C101.646 15.5626 101.406 15.6323 101.2 15.7716C100.994 15.9054 100.84 16.081 100.74 16.2984L100.171 15.989C100.255 15.7995 100.386 15.6267 100.564 15.4706C100.748 15.3146 100.957 15.1919 101.191 15.1028C101.426 15.008 101.668 14.9606 101.919 14.9606C102.248 14.9606 102.538 15.0247 102.788 15.1529C103.045 15.2811 103.243 15.4595 103.382 15.688C103.527 15.911 103.599 16.1702 103.599 16.4656V19.5423H102.972V18.6477L103.064 18.7397C102.986 18.9069 102.864 19.0602 102.696 19.1996C102.535 19.3333 102.342 19.442 102.12 19.5256C101.902 19.6037 101.662 19.6427 101.401 19.6427Z" fill="white"/>
    <path d="M97.2215 19.6427C96.7811 19.6427 96.3938 19.5396 96.0593 19.3333C95.7249 19.1271 95.4629 18.8484 95.2734 18.4972C95.0839 18.1405 94.9891 17.7392 94.9891 17.2933C94.9891 16.8474 95.0839 16.4489 95.2734 16.0977C95.4629 15.7465 95.7249 15.4706 96.0593 15.27C96.3938 15.0637 96.7811 14.9606 97.2215 14.9606C97.5002 14.9606 97.7621 15.0108 98.0074 15.1111C98.2526 15.2115 98.47 15.348 98.6595 15.5208C98.849 15.688 98.9912 15.8831 99.0859 16.1061L98.5174 16.3987C98.4059 16.159 98.2359 15.9639 98.0074 15.8134C97.7789 15.6629 97.5169 15.5877 97.2215 15.5877C96.9261 15.5877 96.6585 15.6629 96.4188 15.8134C96.1847 15.9584 95.998 16.1618 95.8587 16.4238C95.7249 16.6802 95.658 16.9728 95.658 17.3017C95.658 17.6249 95.7249 17.9176 95.8587 18.1795C95.998 18.4359 96.1847 18.6394 96.4188 18.7899C96.6585 18.9404 96.9261 19.0156 97.2215 19.0156C97.5169 19.0156 97.7761 18.9404 97.999 18.7899C98.2276 18.6394 98.4003 18.4387 98.5174 18.1879L99.0859 18.4972C98.9912 18.7146 98.849 18.9097 98.6595 19.0825C98.47 19.2553 98.2526 19.3919 98.0074 19.4922C97.7621 19.5925 97.5002 19.6427 97.2215 19.6427Z" fill="white"/>
    <path d="M93.2625 19.5428V15.0614H93.8895V19.5428H93.2625ZM93.2625 14.2337V13.314H93.8895V14.2337H93.2625Z" fill="white"/>
    <path d="M91.3518 19.5425V13.2134H91.9789V19.5425H91.3518Z" fill="white"/>
    <path d="M74.552 19.5428L76.8261 13.314H77.5452L79.8193 19.5428H79.117L78.5819 18.0211H75.7978L75.2543 19.5428H74.552ZM76.0151 17.394H78.3478L77.0853 13.8156H77.286L76.0151 17.394Z" fill="white"/>
    <path d="M86.0759 20.6V14.688H86.8039V15.616L86.7079 15.432C86.8679 15.176 87.0866 14.9734 87.3639 14.824C87.6413 14.6694 87.9586 14.592 88.3159 14.592C88.7213 14.592 89.0839 14.6907 89.4039 14.888C89.7293 15.0854 89.9853 15.3547 90.1719 15.696C90.3586 16.032 90.4519 16.416 90.4519 16.848C90.4519 17.2694 90.3586 17.6507 90.1719 17.992C89.9853 18.3334 89.7293 18.6027 89.4039 18.8C89.0839 18.9974 88.7186 19.096 88.3079 19.096C87.9613 19.096 87.6439 19.0187 87.3559 18.864C87.0733 18.7094 86.8546 18.4907 86.6999 18.208L86.8199 18.08V20.6H86.0759ZM88.2519 18.376C88.5239 18.376 88.7666 18.3094 88.9799 18.176C89.1933 18.0427 89.3586 17.8614 89.4759 17.632C89.5986 17.3974 89.6599 17.136 89.6599 16.848C89.6599 16.5494 89.5986 16.288 89.4759 16.064C89.3586 15.8347 89.1933 15.6534 88.9799 15.52C88.7666 15.3814 88.5239 15.312 88.2519 15.312C87.9799 15.312 87.7346 15.3787 87.5159 15.512C87.3026 15.6454 87.1319 15.8294 87.0039 16.064C86.8813 16.2934 86.8199 16.5547 86.8199 16.848C86.8199 17.136 86.8813 17.3974 87.0039 17.632C87.1319 17.8614 87.3026 18.0427 87.5159 18.176C87.7346 18.3094 87.9799 18.376 88.2519 18.376Z" fill="white"/>
    <path d="M80.7244 20.6V14.688H81.4524V15.616L81.3564 15.432C81.5164 15.176 81.735 14.9734 82.0124 14.824C82.2897 14.6694 82.607 14.592 82.9644 14.592C83.3697 14.592 83.7324 14.6907 84.0524 14.888C84.3777 15.0854 84.6337 15.3547 84.8204 15.696C85.007 16.032 85.1004 16.416 85.1004 16.848C85.1004 17.2694 85.007 17.6507 84.8204 17.992C84.6337 18.3334 84.3777 18.6027 84.0524 18.8C83.7324 18.9974 83.367 19.096 82.9564 19.096C82.6097 19.096 82.2924 19.0187 82.0044 18.864C81.7217 18.7094 81.503 18.4907 81.3484 18.208L81.4684 18.08V20.6H80.7244ZM82.9004 18.376C83.1724 18.376 83.415 18.3094 83.6284 18.176C83.8417 18.0427 84.007 17.8614 84.1244 17.632C84.247 17.3974 84.3084 17.136 84.3084 16.848C84.3084 16.5494 84.247 16.288 84.1244 16.064C84.007 15.8347 83.8417 15.6534 83.6284 15.52C83.415 15.3814 83.1724 15.312 82.9004 15.312C82.6284 15.312 82.383 15.3787 82.1644 15.512C81.951 15.6454 81.7804 15.8294 81.6524 16.064C81.5297 16.2934 81.4684 16.5547 81.4684 16.848C81.4684 17.136 81.5297 17.3974 81.6524 17.632C81.7804 17.8614 81.951 18.0427 82.1644 18.176C82.383 18.3094 82.6284 18.376 82.9004 18.376Z" fill="white"/>
    <path d="M72.4913 15.0909V15.7301H69.9473V15.0909H72.4913ZM70.6887 13.9147H71.443V18.5937C71.443 18.8068 71.4739 18.9666 71.5357 19.0731C71.5996 19.1775 71.6806 19.2478 71.7786 19.2841C71.8787 19.3181 71.9842 19.3352 72.095 19.3352C72.1781 19.3352 72.2463 19.3309 72.2995 19.3224C72.3528 19.3118 72.3954 19.3032 72.4274 19.2968L72.5808 19.9744C72.5297 19.9936 72.4583 20.0127 72.3667 20.0319C72.275 20.0532 72.1589 20.0639 72.0183 20.0639C71.8052 20.0639 71.5964 20.0181 71.3919 19.9265C71.1895 19.8348 71.0211 19.6953 70.8869 19.5078C70.7548 19.3203 70.6887 19.0838 70.6887 18.7983V13.9147Z" fill="white"/>
    <path d="M69.1315 16.1903L68.4539 16.3821C68.4113 16.2692 68.3485 16.1594 68.2654 16.0529C68.1844 15.9442 68.0736 15.8547 67.933 15.7844C67.7924 15.7141 67.6123 15.679 67.3929 15.679C67.0924 15.679 66.8421 15.7482 66.6418 15.8867C66.4436 16.0231 66.3446 16.1967 66.3446 16.4077C66.3446 16.5952 66.4127 16.7432 66.5491 16.8519C66.6855 16.9606 66.8985 17.0511 67.1883 17.1236L67.917 17.3025C68.3559 17.4091 68.683 17.5721 68.8982 17.7915C69.1134 18.0089 69.221 18.2891 69.221 18.6321C69.221 18.9133 69.14 19.1648 68.9781 19.3864C68.8183 19.6079 68.5946 19.7827 68.3069 19.9105C68.0193 20.0383 67.6848 20.1023 67.3034 20.1023C66.8027 20.1023 66.3882 19.9936 66.0601 19.7763C65.732 19.5589 65.5242 19.2415 65.4369 18.8239L66.1528 18.6449C66.221 18.9091 66.3499 19.1072 66.5395 19.2393C66.7313 19.3714 66.9816 19.4375 67.2906 19.4375C67.6421 19.4375 67.9213 19.3629 68.1279 19.2138C68.3367 19.0625 68.4412 18.8814 68.4412 18.6704C68.4412 18.5 68.3815 18.3572 68.2622 18.2422C68.1429 18.125 67.9596 18.0376 67.7125 17.9801L66.8943 17.7883C66.4447 17.6818 66.1144 17.5167 65.9035 17.293C65.6947 17.0671 65.5903 16.7848 65.5903 16.446C65.5903 16.169 65.6681 15.924 65.8236 15.7109C65.9813 15.4979 66.1954 15.3306 66.466 15.2092C66.7387 15.0877 67.0477 15.027 67.3929 15.027C67.8787 15.027 68.26 15.1335 68.537 15.3466C68.8162 15.5596 69.0143 15.8409 69.1315 16.1903Z" fill="white"/>
    <path d="M63.5184 17.9929V15.0909H64.2727V20H63.5184V19.169H63.4673C63.3522 19.4183 63.1733 19.6303 62.9304 19.805C62.6875 19.9776 62.3806 20.0639 62.0099 20.0639C61.7031 20.0639 61.4304 19.9968 61.1917 19.8625C60.9531 19.7262 60.7656 19.5216 60.6292 19.2489C60.4929 18.974 60.4247 18.6278 60.4247 18.2102V15.0909H61.1789V18.1591C61.1789 18.517 61.2791 18.8025 61.4794 19.0156C61.6818 19.2287 61.9396 19.3352 62.2528 19.3352C62.4403 19.3352 62.631 19.2873 62.8249 19.1914C63.0209 19.0955 63.185 18.9485 63.3171 18.7503C63.4513 18.5522 63.5184 18.2997 63.5184 17.9929Z" fill="white"/>
    <path d="M59.0432 13.4545V20H58.2889V13.4545H59.0432Z" fill="white"/>
    <path d="M54.9403 20V15.0909H55.669V15.8323H55.7201C55.8096 15.5894 55.9716 15.3924 56.2059 15.2411C56.4403 15.0898 56.7045 15.0142 56.9985 15.0142C57.0539 15.0142 57.1232 15.0152 57.2063 15.0174C57.2894 15.0195 57.3522 15.0227 57.3949 15.0269V15.794C57.3693 15.7876 57.3107 15.778 57.2191 15.7652C57.1296 15.7503 57.0348 15.7429 56.9346 15.7429C56.696 15.7429 56.4829 15.7929 56.2954 15.8931C56.1101 15.9911 55.963 16.1274 55.8544 16.3022C55.7478 16.4747 55.6946 16.6718 55.6946 16.8934V20H54.9403Z" fill="white"/>
    <path d="M51.7603 20.1023C51.2873 20.1023 50.8792 19.9979 50.5362 19.7891C50.1953 19.5781 49.9321 19.2841 49.7468 18.9069C49.5635 18.5277 49.4719 18.0866 49.4719 17.5838C49.4719 17.081 49.5635 16.6378 49.7468 16.2543C49.9321 15.8686 50.19 15.5682 50.5202 15.353C50.8526 15.1356 51.2404 15.027 51.6836 15.027C51.9393 15.027 52.1917 15.0696 52.441 15.1548C52.6903 15.24 52.9172 15.3785 53.1218 15.5703C53.3263 15.7599 53.4893 16.0114 53.6108 16.3246C53.7322 16.6378 53.7929 17.0234 53.7929 17.4815V17.8011H50.0089V17.1491H53.0259C53.0259 16.8721 52.9705 16.625 52.8597 16.4077C52.751 16.1903 52.5955 16.0188 52.3931 15.8931C52.1928 15.7674 51.9563 15.7045 51.6836 15.7045C51.3831 15.7045 51.1232 15.7791 50.9037 15.9283C50.6864 16.0753 50.5192 16.267 50.402 16.5035C50.2848 16.74 50.2262 16.9936 50.2262 17.2642V17.6989C50.2262 18.0696 50.2901 18.3839 50.4179 18.6417C50.5479 18.8974 50.728 19.0923 50.9581 19.2266C51.1882 19.3587 51.4556 19.4247 51.7603 19.4247C51.9584 19.4247 52.1374 19.397 52.2972 19.3416C52.4591 19.2841 52.5987 19.1989 52.7159 19.0859C52.8331 18.9709 52.9236 18.8281 52.9875 18.6577L53.7162 18.8622C53.6395 19.1094 53.5106 19.3267 53.3295 19.5142C53.1484 19.6996 52.9247 19.8444 52.6584 19.9489C52.392 20.0511 52.0927 20.1023 51.7603 20.1023Z" fill="white"/>
    <path d="M45.9659 20.1023C45.5568 20.1023 45.1956 19.9989 44.8824 19.7922C44.5692 19.5834 44.3242 19.2894 44.1473 18.9101C43.9705 18.5287 43.8821 18.0781 43.8821 17.5582C43.8821 17.0426 43.9705 16.5952 44.1473 16.2159C44.3242 15.8366 44.5703 15.5437 44.8856 15.337C45.201 15.1303 45.5653 15.027 45.9787 15.027C46.2983 15.027 46.5508 15.0802 46.7361 15.1868C46.9236 15.2912 47.0664 15.4105 47.1644 15.5447C47.2645 15.6768 47.3423 15.7855 47.3977 15.8707H47.4616V13.4545H48.2159V20H47.4872V19.2457H47.3977C47.3423 19.3352 47.2635 19.4481 47.1612 19.5845C47.0589 19.7187 46.913 19.8391 46.7233 19.9457C46.5337 20.0501 46.2812 20.1023 45.9659 20.1023ZM46.0682 19.4247C46.3707 19.4247 46.6264 19.3459 46.8352 19.1882C47.044 19.0284 47.2027 18.8079 47.3114 18.5266C47.4201 18.2432 47.4744 17.9162 47.4744 17.5454C47.4744 17.179 47.4211 16.8583 47.3146 16.5834C47.2081 16.3064 47.0504 16.0912 46.8416 15.9378C46.6328 15.7823 46.375 15.7045 46.0682 15.7045C45.7486 15.7045 45.4822 15.7866 45.2692 15.9506C45.0582 16.1126 44.8995 16.3331 44.7929 16.6122C44.6885 16.8892 44.6363 17.2003 44.6363 17.5454C44.6363 17.8949 44.6896 18.2123 44.7961 18.4979C44.9048 18.7812 45.0646 19.0071 45.2755 19.1754C45.4886 19.3416 45.7528 19.4247 46.0682 19.4247Z" fill="white"/>
    <path d="M39.6018 17.0469V20H38.8475V15.0909H39.5762V15.8579H39.6401C39.7552 15.6087 39.9299 15.4084 40.1643 15.2571C40.3987 15.1037 40.7012 15.027 41.072 15.027C41.4044 15.027 41.6952 15.0952 41.9445 15.2315C42.1938 15.3658 42.3877 15.5703 42.5262 15.8452C42.6647 16.1179 42.7339 16.4631 42.7339 16.8807V20H41.9796V16.9318C41.9796 16.5462 41.8795 16.2457 41.6792 16.0305C41.4789 15.8132 41.2041 15.7045 40.8546 15.7045C40.6139 15.7045 40.3987 15.7567 40.209 15.8611C40.0215 15.9655 39.8735 16.1179 39.7648 16.3182C39.6561 16.5185 39.6018 16.7614 39.6018 17.0469Z" fill="white"/>
    <path d="M35.2209 20.115C34.9098 20.115 34.6275 20.0565 34.3739 19.9393C34.1204 19.8199 33.919 19.6484 33.7699 19.4247C33.6207 19.1989 33.5461 18.9261 33.5461 18.6065C33.5461 18.3253 33.6015 18.0973 33.7123 17.9226C33.8231 17.7457 33.9712 17.6072 34.1566 17.5071C34.342 17.4069 34.5465 17.3324 34.7702 17.2834C34.9961 17.2322 35.223 17.1918 35.451 17.1619C35.7493 17.1236 35.9911 17.0948 36.1765 17.0756C36.364 17.0543 36.5003 17.0192 36.5856 16.9702C36.6729 16.9212 36.7166 16.8359 36.7166 16.7145V16.6889C36.7166 16.3736 36.6303 16.1285 36.4577 15.9538C36.2873 15.7791 36.0284 15.6918 35.6811 15.6918C35.321 15.6918 35.0387 15.7706 34.8341 15.9283C34.6296 16.0859 34.4858 16.2543 34.4027 16.4332L33.6868 16.1775C33.8146 15.8793 33.9851 15.647 34.1981 15.4808C34.4133 15.3125 34.6477 15.1953 34.9013 15.1293C35.1569 15.0611 35.4084 15.027 35.6555 15.027C35.8132 15.027 35.9943 15.0462 36.1988 15.0845C36.4055 15.1207 36.6047 15.1964 36.7965 15.3114C36.9904 15.4265 37.1513 15.6001 37.2791 15.8324C37.4069 16.0646 37.4709 16.3757 37.4709 16.7656V20H36.7166V19.3352H36.6782C36.6271 19.4418 36.5419 19.5557 36.4226 19.6772C36.3032 19.7986 36.1445 19.902 35.9464 19.9872C35.7482 20.0724 35.5064 20.115 35.2209 20.115ZM35.3359 19.4375C35.6342 19.4375 35.8856 19.3789 36.0902 19.2617C36.2969 19.1445 36.4524 18.9932 36.5568 18.8079C36.6633 18.6225 36.7166 18.4275 36.7166 18.223V17.5327C36.6846 17.571 36.6143 17.6062 36.5057 17.6381C36.3991 17.668 36.2755 17.6946 36.1349 17.718C35.9964 17.7393 35.8611 17.7585 35.729 17.7756C35.5991 17.7905 35.4936 17.8033 35.4126 17.8139C35.2166 17.8395 35.0334 17.881 34.8629 17.9386C34.6946 17.994 34.5582 18.0781 34.4538 18.191C34.3515 18.3018 34.3004 18.4531 34.3004 18.6449C34.3004 18.9069 34.3974 19.1051 34.5912 19.2393C34.7873 19.3714 35.0355 19.4375 35.3359 19.4375Z" fill="white"/>
    <path d="M26.9815 20L25.1918 13.4545H25.9972L27.3651 18.7855H27.429L28.8225 13.4545H29.7173L31.1108 18.7855H31.1747L32.5426 13.4545H33.348L31.5582 20H30.7401L29.2955 14.7841H29.2443L27.7997 20H26.9815Z" fill="white"/>
    <defs>
        <linearGradient id="paint0_linear_41_505" x1="288.239" y1="121.419" x2="288.231" y2="81.8847" gradientUnits="userSpaceOnUse">
            <stop stop-color="#EDEDED"/>
            <stop offset="0.0552147" stop-color="#FEFEFE"/>
            <stop offset="0.544" stop-color="#EAEAEA"/>
            <stop offset="1" stop-color="#EAEAEA"/>
        </linearGradient>
    </defs>
</svg>
